M48
;GenerationSoftware,Autodesk,EAGLE,9.6.0*%
;CreationDate,2020-11-01T15:51:03Z*%
FMAT,2
ICI,OFF
METRIC,TZ,000.000
T2C0.400
T1C1.016
%
G90
M71
T1
X2540Y3810
X-2540Y1270
X-2540Y3810
X0Y1270
X0Y3810
X2540Y1270
T2
X3048Y36322
X4064Y34798
X-2032Y34798
X-4064Y34798
X-3048Y36322
X-4064Y16764
X4064Y5080
X-1524Y7112
X-4064Y5080
X-1524Y5842
X-4064Y11938
X762Y26924
X3810Y11938
X3810Y20320
X-2286Y13970
X0Y18796
X3556Y15240
X0Y10414
X2032Y11938
X0Y17526
X2286Y29210
X2032Y20320
X1778Y27940
X-2286Y20320
X0Y16002
X-2286Y11684
X0Y20320
X0Y34798
X1016Y36322
X-1016Y36322
X2032Y34798
X-508Y27940
M30