G04 EAGLE Gerber RS-274X export*
G75*
%MOMM*%
%FSLAX34Y34*%
%LPD*%
%INGBL*%
%IPPOS*%
%AMOC8*
5,1,8,0,0,1.08239X$1,22.5*%
G01*
%ADD10C,1.879600*%
%ADD11C,0.908000*%
%ADD12C,0.254000*%
%ADD13C,0.381000*%

G36*
X-9778Y2685D02*
X-9778Y2685D01*
X-9640Y2698D01*
X-9621Y2705D01*
X-9600Y2708D01*
X-9471Y2759D01*
X-9340Y2806D01*
X-9323Y2817D01*
X-9305Y2825D01*
X-9192Y2906D01*
X-9077Y2984D01*
X-9064Y3000D01*
X-9047Y3011D01*
X-8959Y3119D01*
X-8867Y3223D01*
X-8857Y3241D01*
X-8845Y3256D01*
X-8785Y3382D01*
X-8722Y3506D01*
X-8718Y3526D01*
X-8709Y3544D01*
X-8683Y3681D01*
X-8652Y3816D01*
X-8653Y3837D01*
X-8649Y3856D01*
X-8658Y3995D01*
X-8662Y4134D01*
X-8668Y4154D01*
X-8669Y4174D01*
X-8712Y4306D01*
X-8750Y4440D01*
X-8761Y4457D01*
X-8767Y4476D01*
X-8841Y4594D01*
X-8912Y4714D01*
X-8931Y4735D01*
X-8937Y4745D01*
X-8952Y4759D01*
X-9018Y4834D01*
X-10121Y5937D01*
X-11939Y10325D01*
X-11939Y15075D01*
X-10121Y19463D01*
X-6763Y22821D01*
X-3368Y24227D01*
X-3247Y24296D01*
X-3124Y24361D01*
X-3109Y24375D01*
X-3092Y24385D01*
X-2992Y24482D01*
X-2889Y24575D01*
X-2878Y24592D01*
X-2863Y24606D01*
X-2791Y24724D01*
X-2714Y24841D01*
X-2708Y24860D01*
X-2697Y24877D01*
X-2656Y25010D01*
X-2611Y25142D01*
X-2609Y25162D01*
X-2603Y25181D01*
X-2597Y25320D01*
X-2586Y25459D01*
X-2589Y25479D01*
X-2588Y25499D01*
X-2616Y25635D01*
X-2640Y25772D01*
X-2648Y25791D01*
X-2652Y25810D01*
X-2714Y25935D01*
X-2771Y26062D01*
X-2783Y26078D01*
X-2792Y26096D01*
X-2883Y26202D01*
X-2969Y26310D01*
X-2985Y26323D01*
X-2999Y26338D01*
X-3112Y26418D01*
X-3223Y26502D01*
X-3249Y26514D01*
X-3259Y26521D01*
X-3278Y26528D01*
X-3368Y26573D01*
X-6763Y27979D01*
X-10121Y31337D01*
X-11527Y34732D01*
X-11596Y34853D01*
X-11661Y34976D01*
X-11675Y34991D01*
X-11685Y35008D01*
X-11782Y35108D01*
X-11875Y35211D01*
X-11892Y35222D01*
X-11906Y35237D01*
X-12025Y35309D01*
X-12141Y35386D01*
X-12160Y35392D01*
X-12177Y35403D01*
X-12310Y35444D01*
X-12442Y35489D01*
X-12462Y35491D01*
X-12481Y35497D01*
X-12620Y35503D01*
X-12759Y35514D01*
X-12779Y35511D01*
X-12799Y35512D01*
X-12935Y35484D01*
X-13072Y35460D01*
X-13091Y35452D01*
X-13110Y35448D01*
X-13236Y35386D01*
X-13362Y35329D01*
X-13378Y35317D01*
X-13396Y35308D01*
X-13502Y35217D01*
X-13610Y35131D01*
X-13623Y35115D01*
X-13638Y35101D01*
X-13718Y34988D01*
X-13802Y34877D01*
X-13814Y34851D01*
X-13821Y34841D01*
X-13828Y34822D01*
X-13873Y34732D01*
X-15279Y31337D01*
X-18637Y27979D01*
X-23025Y26161D01*
X-27775Y26161D01*
X-32163Y27979D01*
X-35521Y31337D01*
X-37339Y35725D01*
X-37339Y40475D01*
X-35521Y44863D01*
X-32163Y48221D01*
X-27775Y50039D01*
X-23025Y50039D01*
X-18637Y48221D01*
X-15279Y44863D01*
X-13873Y41468D01*
X-13804Y41347D01*
X-13739Y41224D01*
X-13725Y41209D01*
X-13715Y41192D01*
X-13618Y41092D01*
X-13525Y40989D01*
X-13508Y40978D01*
X-13494Y40963D01*
X-13376Y40891D01*
X-13259Y40814D01*
X-13240Y40808D01*
X-13223Y40797D01*
X-13090Y40756D01*
X-12958Y40711D01*
X-12938Y40709D01*
X-12919Y40703D01*
X-12780Y40697D01*
X-12641Y40686D01*
X-12621Y40689D01*
X-12601Y40688D01*
X-12465Y40716D01*
X-12328Y40740D01*
X-12309Y40748D01*
X-12290Y40752D01*
X-12165Y40814D01*
X-12038Y40871D01*
X-12022Y40883D01*
X-12004Y40892D01*
X-11898Y40983D01*
X-11790Y41069D01*
X-11777Y41085D01*
X-11762Y41099D01*
X-11682Y41212D01*
X-11598Y41323D01*
X-11586Y41349D01*
X-11579Y41359D01*
X-11572Y41378D01*
X-11527Y41468D01*
X-10121Y44863D01*
X-6763Y48221D01*
X-5229Y48856D01*
X-5204Y48871D01*
X-5176Y48880D01*
X-5066Y48949D01*
X-4953Y49014D01*
X-4932Y49034D01*
X-4907Y49050D01*
X-4818Y49145D01*
X-4725Y49235D01*
X-4709Y49260D01*
X-4689Y49282D01*
X-4626Y49396D01*
X-4558Y49506D01*
X-4550Y49535D01*
X-4535Y49560D01*
X-4503Y49686D01*
X-4465Y49810D01*
X-4463Y49840D01*
X-4456Y49868D01*
X-4446Y50029D01*
X-4446Y98046D01*
X-4458Y98145D01*
X-4461Y98244D01*
X-4478Y98302D01*
X-4486Y98362D01*
X-4522Y98454D01*
X-4550Y98549D01*
X-4580Y98601D01*
X-4603Y98658D01*
X-4661Y98738D01*
X-4711Y98823D01*
X-4777Y98898D01*
X-4789Y98915D01*
X-4799Y98923D01*
X-4817Y98944D01*
X-6003Y100129D01*
X-7081Y102732D01*
X-7081Y105548D01*
X-6003Y108151D01*
X-4011Y110143D01*
X-1408Y111221D01*
X1408Y111221D01*
X4011Y110143D01*
X4182Y109971D01*
X4292Y109886D01*
X4399Y109797D01*
X4418Y109789D01*
X4434Y109776D01*
X4561Y109721D01*
X4687Y109662D01*
X4707Y109658D01*
X4726Y109650D01*
X4863Y109628D01*
X5000Y109602D01*
X5020Y109603D01*
X5040Y109600D01*
X5178Y109613D01*
X5317Y109622D01*
X5336Y109628D01*
X5356Y109630D01*
X5488Y109677D01*
X5619Y109720D01*
X5636Y109730D01*
X5656Y109737D01*
X5771Y109816D01*
X5888Y109890D01*
X5902Y109905D01*
X5919Y109916D01*
X6011Y110020D01*
X6106Y110121D01*
X6116Y110139D01*
X6129Y110154D01*
X6193Y110278D01*
X6260Y110400D01*
X6265Y110420D01*
X6274Y110438D01*
X6304Y110574D01*
X6339Y110708D01*
X6341Y110736D01*
X6344Y110748D01*
X6343Y110768D01*
X6349Y110869D01*
X6349Y136698D01*
X6332Y136835D01*
X6319Y136974D01*
X6312Y136993D01*
X6309Y137013D01*
X6258Y137142D01*
X6211Y137273D01*
X6200Y137290D01*
X6192Y137309D01*
X6111Y137421D01*
X6033Y137537D01*
X6017Y137550D01*
X6006Y137566D01*
X5898Y137655D01*
X5794Y137747D01*
X5776Y137756D01*
X5761Y137769D01*
X5635Y137828D01*
X5511Y137892D01*
X5491Y137896D01*
X5473Y137905D01*
X5337Y137931D01*
X5201Y137961D01*
X5180Y137961D01*
X5161Y137965D01*
X5022Y137956D01*
X4883Y137952D01*
X4863Y137946D01*
X4843Y137945D01*
X4711Y137902D01*
X4577Y137863D01*
X4560Y137853D01*
X4541Y137847D01*
X4423Y137772D01*
X4303Y137702D01*
X4282Y137683D01*
X4272Y137677D01*
X4258Y137662D01*
X4183Y137595D01*
X-15408Y118005D01*
X-15468Y117927D01*
X-15536Y117855D01*
X-15565Y117802D01*
X-15602Y117754D01*
X-15642Y117663D01*
X-15690Y117576D01*
X-15705Y117518D01*
X-15729Y117462D01*
X-15744Y117364D01*
X-15769Y117268D01*
X-15775Y117168D01*
X-15779Y117148D01*
X-15777Y117136D01*
X-15779Y117108D01*
X-15779Y115432D01*
X-16857Y112829D01*
X-18849Y110837D01*
X-21452Y109759D01*
X-24268Y109759D01*
X-26871Y110837D01*
X-28863Y112829D01*
X-29941Y115432D01*
X-29941Y118248D01*
X-28863Y120851D01*
X-26871Y122843D01*
X-24268Y123921D01*
X-22592Y123921D01*
X-22494Y123933D01*
X-22395Y123936D01*
X-22337Y123953D01*
X-22277Y123961D01*
X-22185Y123997D01*
X-22090Y124025D01*
X-22037Y124055D01*
X-21981Y124078D01*
X-21901Y124136D01*
X-21816Y124186D01*
X-21740Y124252D01*
X-21724Y124264D01*
X-21716Y124274D01*
X-21695Y124292D01*
X-4817Y141170D01*
X-4757Y141248D01*
X-4689Y141320D01*
X-4660Y141373D01*
X-4623Y141421D01*
X-4583Y141512D01*
X-4535Y141599D01*
X-4520Y141657D01*
X-4496Y141713D01*
X-4481Y141811D01*
X-4456Y141907D01*
X-4450Y142007D01*
X-4446Y142027D01*
X-4448Y142039D01*
X-4446Y142067D01*
X-4446Y153926D01*
X-4458Y154025D01*
X-4461Y154124D01*
X-4478Y154182D01*
X-4486Y154242D01*
X-4522Y154334D01*
X-4550Y154429D01*
X-4580Y154481D01*
X-4603Y154538D01*
X-4661Y154618D01*
X-4711Y154703D01*
X-4777Y154778D01*
X-4789Y154795D01*
X-4799Y154803D01*
X-4817Y154824D01*
X-6003Y156009D01*
X-7081Y158612D01*
X-7081Y161428D01*
X-6003Y164031D01*
X-4011Y166023D01*
X-2938Y166467D01*
X-2817Y166536D01*
X-2694Y166601D01*
X-2679Y166615D01*
X-2661Y166625D01*
X-2561Y166722D01*
X-2458Y166815D01*
X-2447Y166832D01*
X-2433Y166846D01*
X-2360Y166965D01*
X-2284Y167081D01*
X-2277Y167100D01*
X-2267Y167117D01*
X-2226Y167250D01*
X-2181Y167382D01*
X-2179Y167402D01*
X-2173Y167421D01*
X-2166Y167560D01*
X-2155Y167699D01*
X-2159Y167719D01*
X-2158Y167739D01*
X-2186Y167875D01*
X-2210Y168012D01*
X-2218Y168031D01*
X-2222Y168050D01*
X-2283Y168175D01*
X-2340Y168302D01*
X-2353Y168318D01*
X-2362Y168336D01*
X-2452Y168442D01*
X-2539Y168550D01*
X-2555Y168563D01*
X-2568Y168578D01*
X-2682Y168658D01*
X-2793Y168742D01*
X-2818Y168754D01*
X-2828Y168761D01*
X-2847Y168768D01*
X-2937Y168813D01*
X-4011Y169257D01*
X-6003Y171249D01*
X-7081Y173852D01*
X-7081Y176668D01*
X-6003Y179271D01*
X-4561Y180713D01*
X-4488Y180807D01*
X-4409Y180896D01*
X-4391Y180932D01*
X-4366Y180964D01*
X-4319Y181073D01*
X-4265Y181179D01*
X-4256Y181218D01*
X-4240Y181256D01*
X-4221Y181373D01*
X-4195Y181489D01*
X-4196Y181530D01*
X-4190Y181570D01*
X-4201Y181689D01*
X-4205Y181807D01*
X-4216Y181846D01*
X-4220Y181886D01*
X-4260Y181999D01*
X-4293Y182113D01*
X-4314Y182148D01*
X-4327Y182186D01*
X-4394Y182284D01*
X-4455Y182387D01*
X-4495Y182432D01*
X-4506Y182449D01*
X-4521Y182462D01*
X-4561Y182508D01*
X-5196Y183143D01*
X-5274Y183203D01*
X-5347Y183271D01*
X-5400Y183300D01*
X-5447Y183337D01*
X-5538Y183377D01*
X-5625Y183425D01*
X-5684Y183440D01*
X-5739Y183464D01*
X-5837Y183479D01*
X-5933Y183504D01*
X-6033Y183510D01*
X-6053Y183514D01*
X-6066Y183512D01*
X-6094Y183514D01*
X-17145Y183514D01*
X-17263Y183499D01*
X-17382Y183492D01*
X-17420Y183479D01*
X-17461Y183474D01*
X-17571Y183431D01*
X-17684Y183394D01*
X-17719Y183372D01*
X-17756Y183357D01*
X-17852Y183288D01*
X-17953Y183224D01*
X-17981Y183194D01*
X-18014Y183171D01*
X-18090Y183079D01*
X-18171Y182992D01*
X-18191Y182957D01*
X-18216Y182926D01*
X-18267Y182818D01*
X-18325Y182714D01*
X-18335Y182674D01*
X-18352Y182638D01*
X-18374Y182521D01*
X-18404Y182406D01*
X-18408Y182346D01*
X-18412Y182326D01*
X-18410Y182305D01*
X-18414Y182245D01*
X-18414Y145794D01*
X-18402Y145695D01*
X-18399Y145596D01*
X-18382Y145538D01*
X-18374Y145478D01*
X-18338Y145386D01*
X-18310Y145291D01*
X-18280Y145239D01*
X-18257Y145182D01*
X-18199Y145102D01*
X-18149Y145017D01*
X-18083Y144942D01*
X-18071Y144925D01*
X-18061Y144917D01*
X-18043Y144896D01*
X-16857Y143711D01*
X-15779Y141108D01*
X-15779Y138292D01*
X-16857Y135689D01*
X-18849Y133697D01*
X-21452Y132619D01*
X-24268Y132619D01*
X-26871Y133697D01*
X-28863Y135689D01*
X-29941Y138292D01*
X-29941Y141108D01*
X-28863Y143711D01*
X-27677Y144896D01*
X-27617Y144974D01*
X-27549Y145047D01*
X-27520Y145100D01*
X-27483Y145147D01*
X-27443Y145238D01*
X-27395Y145325D01*
X-27380Y145384D01*
X-27356Y145439D01*
X-27341Y145537D01*
X-27316Y145633D01*
X-27310Y145733D01*
X-27306Y145753D01*
X-27308Y145766D01*
X-27306Y145794D01*
X-27306Y185593D01*
X-27318Y185691D01*
X-27321Y185790D01*
X-27338Y185848D01*
X-27346Y185908D01*
X-27382Y186000D01*
X-27410Y186095D01*
X-27440Y186148D01*
X-27463Y186204D01*
X-27521Y186284D01*
X-27571Y186369D01*
X-27637Y186445D01*
X-27649Y186461D01*
X-27659Y186469D01*
X-27677Y186490D01*
X-37466Y196279D01*
X-37466Y210121D01*
X-9897Y237690D01*
X-9837Y237768D01*
X-9769Y237840D01*
X-9740Y237893D01*
X-9703Y237941D01*
X-9663Y238032D01*
X-9615Y238119D01*
X-9600Y238177D01*
X-9576Y238233D01*
X-9561Y238331D01*
X-9536Y238427D01*
X-9530Y238527D01*
X-9526Y238547D01*
X-9528Y238559D01*
X-9526Y238587D01*
X-9526Y273306D01*
X-9538Y273405D01*
X-9541Y273504D01*
X-9558Y273562D01*
X-9566Y273622D01*
X-9602Y273714D01*
X-9630Y273809D01*
X-9660Y273861D01*
X-9683Y273918D01*
X-9741Y273998D01*
X-9791Y274083D01*
X-9857Y274158D01*
X-9869Y274175D01*
X-9879Y274183D01*
X-9897Y274204D01*
X-11083Y275389D01*
X-12161Y277992D01*
X-12161Y280808D01*
X-11083Y283411D01*
X-9091Y285403D01*
X-6488Y286481D01*
X-3672Y286481D01*
X-1069Y285403D01*
X923Y283411D01*
X1456Y282123D01*
X1481Y282080D01*
X1498Y282033D01*
X1559Y281942D01*
X1614Y281847D01*
X1648Y281811D01*
X1676Y281770D01*
X1758Y281698D01*
X1835Y281619D01*
X1877Y281592D01*
X1915Y281560D01*
X2012Y281510D01*
X2106Y281452D01*
X2154Y281438D01*
X2198Y281415D01*
X2305Y281391D01*
X2410Y281359D01*
X2460Y281356D01*
X2508Y281345D01*
X2618Y281349D01*
X2728Y281344D01*
X2776Y281354D01*
X2826Y281355D01*
X2932Y281386D01*
X3039Y281408D01*
X3084Y281430D01*
X3131Y281443D01*
X3226Y281499D01*
X3325Y281548D01*
X3363Y281580D01*
X3405Y281605D01*
X3526Y281711D01*
X5026Y283211D01*
X11051Y283211D01*
X11150Y283223D01*
X11249Y283226D01*
X11307Y283243D01*
X11367Y283251D01*
X11459Y283287D01*
X11554Y283315D01*
X11606Y283345D01*
X11663Y283368D01*
X11743Y283426D01*
X11828Y283476D01*
X11903Y283542D01*
X11920Y283554D01*
X11928Y283564D01*
X11949Y283582D01*
X13769Y285403D01*
X16182Y286402D01*
X16285Y286461D01*
X16392Y286514D01*
X16423Y286540D01*
X16458Y286560D01*
X16544Y286643D01*
X16634Y286720D01*
X16658Y286753D01*
X16687Y286781D01*
X16749Y286883D01*
X16818Y286980D01*
X16832Y287018D01*
X16853Y287052D01*
X16888Y287166D01*
X16930Y287277D01*
X16935Y287318D01*
X16947Y287356D01*
X16952Y287475D01*
X16966Y287593D01*
X16960Y287634D01*
X16962Y287674D01*
X16938Y287790D01*
X16921Y287908D01*
X16902Y287965D01*
X16898Y287985D01*
X16888Y288004D01*
X16869Y288061D01*
X15779Y290692D01*
X15779Y293508D01*
X16857Y296111D01*
X18849Y298103D01*
X21452Y299181D01*
X24268Y299181D01*
X26871Y298103D01*
X28863Y296111D01*
X29941Y293508D01*
X29941Y290934D01*
X29953Y290836D01*
X29956Y290737D01*
X29973Y290679D01*
X29981Y290619D01*
X30017Y290527D01*
X30045Y290431D01*
X30075Y290379D01*
X30098Y290323D01*
X30156Y290243D01*
X30206Y290158D01*
X30272Y290082D01*
X30284Y290066D01*
X30294Y290058D01*
X30312Y290037D01*
X31751Y288598D01*
X31751Y262582D01*
X24502Y255333D01*
X24442Y255255D01*
X24374Y255183D01*
X24345Y255130D01*
X24308Y255082D01*
X24268Y254991D01*
X24220Y254904D01*
X24205Y254846D01*
X24181Y254790D01*
X24166Y254692D01*
X24141Y254596D01*
X24135Y254496D01*
X24131Y254476D01*
X24133Y254464D01*
X24131Y254436D01*
X24131Y209929D01*
X24143Y209830D01*
X24146Y209731D01*
X24163Y209673D01*
X24171Y209613D01*
X24207Y209521D01*
X24235Y209426D01*
X24265Y209374D01*
X24288Y209317D01*
X24346Y209237D01*
X24396Y209152D01*
X24462Y209077D01*
X24474Y209060D01*
X24484Y209052D01*
X24502Y209031D01*
X26323Y207211D01*
X27401Y204608D01*
X27401Y201792D01*
X26323Y199189D01*
X24331Y197197D01*
X21728Y196119D01*
X20614Y196119D01*
X20477Y196102D01*
X20338Y196089D01*
X20319Y196082D01*
X20299Y196079D01*
X20170Y196028D01*
X20039Y195981D01*
X20022Y195970D01*
X20003Y195962D01*
X19891Y195881D01*
X19775Y195803D01*
X19762Y195787D01*
X19746Y195776D01*
X19657Y195668D01*
X19565Y195564D01*
X19556Y195546D01*
X19543Y195531D01*
X19484Y195405D01*
X19420Y195281D01*
X19416Y195261D01*
X19407Y195243D01*
X19381Y195107D01*
X19351Y194971D01*
X19351Y194950D01*
X19347Y194931D01*
X19356Y194792D01*
X19360Y194653D01*
X19366Y194633D01*
X19367Y194613D01*
X19410Y194481D01*
X19449Y194347D01*
X19459Y194330D01*
X19465Y194311D01*
X19540Y194193D01*
X19610Y194073D01*
X19629Y194052D01*
X19635Y194042D01*
X19650Y194028D01*
X19717Y193953D01*
X43426Y170244D01*
X43535Y170158D01*
X43642Y170070D01*
X43661Y170061D01*
X43677Y170049D01*
X43805Y169993D01*
X43930Y169934D01*
X43950Y169930D01*
X43969Y169922D01*
X44107Y169900D01*
X44243Y169874D01*
X44263Y169876D01*
X44283Y169873D01*
X44422Y169886D01*
X44560Y169894D01*
X44579Y169900D01*
X44599Y169902D01*
X44731Y169950D01*
X44862Y169992D01*
X44880Y170003D01*
X44899Y170010D01*
X45014Y170088D01*
X45131Y170162D01*
X45145Y170177D01*
X45162Y170189D01*
X45254Y170293D01*
X45349Y170394D01*
X45359Y170412D01*
X45372Y170427D01*
X45436Y170551D01*
X45503Y170673D01*
X45508Y170692D01*
X45517Y170710D01*
X45547Y170846D01*
X45582Y170980D01*
X45584Y171009D01*
X45587Y171020D01*
X45586Y171041D01*
X45592Y171141D01*
X45592Y369443D01*
X45577Y369561D01*
X45570Y369680D01*
X45557Y369718D01*
X45552Y369759D01*
X45509Y369869D01*
X45472Y369982D01*
X45450Y370017D01*
X45435Y370054D01*
X45366Y370150D01*
X45302Y370251D01*
X45272Y370279D01*
X45249Y370312D01*
X45157Y370388D01*
X45070Y370469D01*
X45035Y370489D01*
X45004Y370514D01*
X44896Y370565D01*
X44792Y370623D01*
X44752Y370633D01*
X44716Y370650D01*
X44599Y370672D01*
X44484Y370702D01*
X44424Y370706D01*
X44404Y370710D01*
X44383Y370708D01*
X44323Y370712D01*
X-44323Y370712D01*
X-44441Y370697D01*
X-44560Y370690D01*
X-44598Y370677D01*
X-44639Y370672D01*
X-44749Y370629D01*
X-44862Y370592D01*
X-44897Y370570D01*
X-44934Y370555D01*
X-45030Y370486D01*
X-45131Y370422D01*
X-45159Y370392D01*
X-45192Y370369D01*
X-45268Y370277D01*
X-45349Y370190D01*
X-45369Y370155D01*
X-45394Y370124D01*
X-45445Y370016D01*
X-45503Y369912D01*
X-45513Y369872D01*
X-45530Y369836D01*
X-45552Y369719D01*
X-45582Y369604D01*
X-45586Y369544D01*
X-45590Y369524D01*
X-45588Y369503D01*
X-45592Y369443D01*
X-45592Y3937D01*
X-45577Y3819D01*
X-45570Y3700D01*
X-45557Y3662D01*
X-45552Y3621D01*
X-45509Y3511D01*
X-45472Y3398D01*
X-45450Y3363D01*
X-45435Y3326D01*
X-45366Y3230D01*
X-45302Y3129D01*
X-45272Y3101D01*
X-45249Y3068D01*
X-45157Y2992D01*
X-45070Y2911D01*
X-45035Y2891D01*
X-45004Y2866D01*
X-44896Y2815D01*
X-44792Y2757D01*
X-44752Y2747D01*
X-44716Y2730D01*
X-44599Y2708D01*
X-44484Y2678D01*
X-44424Y2674D01*
X-44404Y2670D01*
X-44383Y2672D01*
X-44323Y2668D01*
X-9916Y2668D01*
X-9778Y2685D01*
G37*
G36*
X44441Y2683D02*
X44441Y2683D01*
X44560Y2690D01*
X44598Y2703D01*
X44639Y2708D01*
X44749Y2751D01*
X44862Y2788D01*
X44897Y2810D01*
X44934Y2825D01*
X45030Y2894D01*
X45131Y2958D01*
X45159Y2988D01*
X45192Y3011D01*
X45268Y3103D01*
X45349Y3190D01*
X45369Y3225D01*
X45394Y3256D01*
X45445Y3364D01*
X45503Y3468D01*
X45513Y3508D01*
X45530Y3544D01*
X45552Y3661D01*
X45582Y3776D01*
X45586Y3836D01*
X45590Y3856D01*
X45588Y3877D01*
X45592Y3937D01*
X45592Y5080D01*
X45577Y5198D01*
X45570Y5317D01*
X45557Y5355D01*
X45552Y5396D01*
X45509Y5506D01*
X45472Y5619D01*
X45450Y5654D01*
X45435Y5691D01*
X45366Y5787D01*
X45302Y5888D01*
X45272Y5916D01*
X45249Y5949D01*
X45157Y6025D01*
X45070Y6106D01*
X45035Y6126D01*
X45004Y6151D01*
X44896Y6202D01*
X44792Y6260D01*
X44752Y6270D01*
X44716Y6287D01*
X44599Y6309D01*
X44484Y6339D01*
X44424Y6343D01*
X44404Y6347D01*
X44383Y6345D01*
X44323Y6349D01*
X42128Y6349D01*
X40639Y7838D01*
X40639Y11212D01*
X42128Y12701D01*
X44323Y12701D01*
X44441Y12716D01*
X44560Y12723D01*
X44598Y12736D01*
X44639Y12741D01*
X44749Y12784D01*
X44862Y12821D01*
X44897Y12843D01*
X44934Y12858D01*
X45030Y12927D01*
X45131Y12991D01*
X45159Y13021D01*
X45192Y13044D01*
X45268Y13136D01*
X45349Y13223D01*
X45369Y13258D01*
X45394Y13289D01*
X45445Y13397D01*
X45503Y13501D01*
X45513Y13541D01*
X45530Y13577D01*
X45552Y13694D01*
X45582Y13809D01*
X45586Y13869D01*
X45590Y13889D01*
X45588Y13910D01*
X45592Y13970D01*
X45592Y113794D01*
X45575Y113932D01*
X45562Y114071D01*
X45555Y114090D01*
X45552Y114110D01*
X45501Y114239D01*
X45454Y114370D01*
X45443Y114387D01*
X45435Y114406D01*
X45354Y114518D01*
X45276Y114633D01*
X45260Y114647D01*
X45249Y114663D01*
X45141Y114752D01*
X45037Y114844D01*
X45019Y114853D01*
X45004Y114866D01*
X44878Y114925D01*
X44754Y114988D01*
X44734Y114993D01*
X44716Y115001D01*
X44579Y115027D01*
X44444Y115058D01*
X44423Y115057D01*
X44404Y115061D01*
X44265Y115052D01*
X44126Y115048D01*
X44106Y115043D01*
X44086Y115041D01*
X43954Y114999D01*
X43820Y114960D01*
X43803Y114950D01*
X43784Y114943D01*
X43666Y114869D01*
X43546Y114798D01*
X43525Y114780D01*
X43515Y114773D01*
X43501Y114758D01*
X43426Y114692D01*
X42111Y113377D01*
X39508Y112299D01*
X36692Y112299D01*
X34089Y113377D01*
X32097Y115369D01*
X31019Y117972D01*
X31019Y120788D01*
X32097Y123391D01*
X34089Y125383D01*
X36692Y126461D01*
X39243Y126461D01*
X39361Y126476D01*
X39480Y126483D01*
X39518Y126496D01*
X39559Y126501D01*
X39669Y126544D01*
X39782Y126581D01*
X39817Y126603D01*
X39854Y126618D01*
X39950Y126687D01*
X40051Y126751D01*
X40079Y126781D01*
X40112Y126804D01*
X40188Y126896D01*
X40269Y126983D01*
X40289Y127018D01*
X40314Y127049D01*
X40365Y127157D01*
X40423Y127261D01*
X40433Y127301D01*
X40450Y127337D01*
X40472Y127454D01*
X40502Y127569D01*
X40506Y127629D01*
X40510Y127649D01*
X40508Y127670D01*
X40512Y127730D01*
X40512Y144888D01*
X40506Y144937D01*
X40508Y144987D01*
X40486Y145094D01*
X40472Y145203D01*
X40454Y145249D01*
X40444Y145298D01*
X40396Y145397D01*
X40355Y145499D01*
X40326Y145539D01*
X40304Y145584D01*
X40233Y145667D01*
X40169Y145756D01*
X40130Y145788D01*
X40098Y145826D01*
X40008Y145889D01*
X39924Y145959D01*
X39879Y145980D01*
X39838Y146009D01*
X39735Y146048D01*
X39636Y146095D01*
X39587Y146104D01*
X39541Y146121D01*
X39431Y146134D01*
X39324Y146154D01*
X39274Y146151D01*
X39225Y146157D01*
X39116Y146141D01*
X39006Y146135D01*
X38959Y146119D01*
X38910Y146112D01*
X38757Y146060D01*
X36968Y145319D01*
X34152Y145319D01*
X31549Y146397D01*
X29557Y148389D01*
X28479Y150992D01*
X28479Y152668D01*
X28467Y152766D01*
X28464Y152865D01*
X28447Y152923D01*
X28439Y152983D01*
X28403Y153075D01*
X28375Y153170D01*
X28345Y153223D01*
X28322Y153279D01*
X28264Y153359D01*
X28214Y153444D01*
X28148Y153520D01*
X28136Y153536D01*
X28126Y153544D01*
X28108Y153565D01*
X16137Y165535D01*
X16028Y165621D01*
X15921Y165709D01*
X15902Y165718D01*
X15886Y165730D01*
X15758Y165786D01*
X15633Y165845D01*
X15613Y165849D01*
X15594Y165857D01*
X15456Y165879D01*
X15320Y165905D01*
X15300Y165903D01*
X15280Y165906D01*
X15141Y165893D01*
X15003Y165885D01*
X14984Y165879D01*
X14964Y165877D01*
X14832Y165829D01*
X14701Y165787D01*
X14683Y165776D01*
X14664Y165769D01*
X14549Y165691D01*
X14432Y165617D01*
X14418Y165602D01*
X14401Y165590D01*
X14309Y165486D01*
X14214Y165385D01*
X14204Y165367D01*
X14191Y165352D01*
X14127Y165228D01*
X14060Y165106D01*
X14055Y165087D01*
X14046Y165069D01*
X14016Y164933D01*
X13981Y164799D01*
X13979Y164770D01*
X13976Y164758D01*
X13977Y164738D01*
X13971Y164638D01*
X13971Y126109D01*
X13988Y125971D01*
X14001Y125832D01*
X14008Y125813D01*
X14011Y125793D01*
X14062Y125664D01*
X14109Y125533D01*
X14120Y125516D01*
X14128Y125497D01*
X14209Y125385D01*
X14287Y125270D01*
X14303Y125256D01*
X14314Y125240D01*
X14422Y125151D01*
X14526Y125059D01*
X14544Y125050D01*
X14559Y125037D01*
X14685Y124978D01*
X14809Y124915D01*
X14829Y124910D01*
X14847Y124902D01*
X14983Y124876D01*
X15119Y124845D01*
X15140Y124846D01*
X15159Y124842D01*
X15298Y124851D01*
X15437Y124855D01*
X15457Y124860D01*
X15477Y124862D01*
X15609Y124904D01*
X15743Y124943D01*
X15760Y124953D01*
X15779Y124960D01*
X15897Y125034D01*
X16017Y125105D01*
X16038Y125123D01*
X16048Y125130D01*
X16062Y125145D01*
X16138Y125211D01*
X16309Y125383D01*
X18912Y126461D01*
X21728Y126461D01*
X24331Y125383D01*
X26323Y123391D01*
X27401Y120788D01*
X27401Y117972D01*
X26323Y115369D01*
X24502Y113549D01*
X24442Y113471D01*
X24374Y113398D01*
X24345Y113345D01*
X24308Y113298D01*
X24268Y113207D01*
X24220Y113120D01*
X24205Y113061D01*
X24181Y113006D01*
X24166Y112908D01*
X24141Y112812D01*
X24135Y112712D01*
X24131Y112692D01*
X24133Y112679D01*
X24131Y112651D01*
X24131Y61794D01*
X24143Y61696D01*
X24146Y61597D01*
X24163Y61539D01*
X24171Y61479D01*
X24207Y61387D01*
X24235Y61291D01*
X24265Y61239D01*
X24288Y61183D01*
X24346Y61103D01*
X24396Y61018D01*
X24462Y60942D01*
X24474Y60926D01*
X24484Y60918D01*
X24502Y60897D01*
X29211Y56188D01*
X29211Y50292D01*
X29214Y50263D01*
X29212Y50233D01*
X29234Y50105D01*
X29251Y49976D01*
X29261Y49949D01*
X29266Y49920D01*
X29320Y49801D01*
X29368Y49681D01*
X29385Y49657D01*
X29397Y49630D01*
X29478Y49529D01*
X29554Y49423D01*
X29577Y49405D01*
X29596Y49382D01*
X29699Y49303D01*
X29799Y49221D01*
X29826Y49208D01*
X29850Y49190D01*
X29994Y49119D01*
X32163Y48221D01*
X35521Y44863D01*
X37339Y40475D01*
X37339Y35725D01*
X35521Y31337D01*
X32163Y27979D01*
X28768Y26573D01*
X28647Y26504D01*
X28524Y26439D01*
X28509Y26425D01*
X28492Y26415D01*
X28392Y26318D01*
X28289Y26225D01*
X28278Y26208D01*
X28263Y26194D01*
X28191Y26075D01*
X28114Y25959D01*
X28108Y25940D01*
X28097Y25923D01*
X28056Y25790D01*
X28011Y25658D01*
X28009Y25638D01*
X28003Y25619D01*
X27997Y25480D01*
X27986Y25341D01*
X27989Y25321D01*
X27988Y25301D01*
X28016Y25165D01*
X28040Y25028D01*
X28048Y25009D01*
X28052Y24990D01*
X28114Y24864D01*
X28171Y24738D01*
X28183Y24722D01*
X28192Y24704D01*
X28283Y24598D01*
X28369Y24490D01*
X28385Y24477D01*
X28399Y24462D01*
X28512Y24382D01*
X28623Y24298D01*
X28649Y24286D01*
X28659Y24279D01*
X28678Y24272D01*
X28768Y24227D01*
X32163Y22821D01*
X35521Y19463D01*
X37339Y15075D01*
X37339Y10325D01*
X35521Y5937D01*
X34418Y4834D01*
X34334Y4725D01*
X34245Y4618D01*
X34236Y4599D01*
X34223Y4583D01*
X34168Y4456D01*
X34109Y4330D01*
X34105Y4310D01*
X34097Y4291D01*
X34075Y4153D01*
X34049Y4017D01*
X34050Y3997D01*
X34047Y3977D01*
X34060Y3838D01*
X34069Y3700D01*
X34075Y3681D01*
X34077Y3661D01*
X34124Y3529D01*
X34167Y3398D01*
X34178Y3380D01*
X34185Y3361D01*
X34263Y3246D01*
X34337Y3129D01*
X34352Y3115D01*
X34363Y3098D01*
X34468Y3006D01*
X34569Y2911D01*
X34586Y2901D01*
X34602Y2888D01*
X34726Y2824D01*
X34847Y2757D01*
X34867Y2752D01*
X34885Y2743D01*
X35021Y2713D01*
X35155Y2678D01*
X35183Y2676D01*
X35195Y2673D01*
X35216Y2674D01*
X35316Y2668D01*
X44323Y2668D01*
X44441Y2683D01*
G37*
G36*
X39272Y158653D02*
X39272Y158653D01*
X39382Y158651D01*
X39430Y158662D01*
X39480Y158665D01*
X39584Y158699D01*
X39691Y158725D01*
X39735Y158748D01*
X39782Y158763D01*
X39875Y158822D01*
X39972Y158874D01*
X40009Y158907D01*
X40051Y158934D01*
X40126Y159014D01*
X40208Y159088D01*
X40235Y159129D01*
X40269Y159165D01*
X40322Y159261D01*
X40382Y159353D01*
X40399Y159400D01*
X40423Y159444D01*
X40450Y159550D01*
X40486Y159654D01*
X40490Y159704D01*
X40502Y159752D01*
X40512Y159912D01*
X40512Y161853D01*
X40500Y161951D01*
X40497Y162050D01*
X40480Y162108D01*
X40472Y162168D01*
X40436Y162260D01*
X40408Y162356D01*
X40378Y162408D01*
X40355Y162464D01*
X40297Y162544D01*
X40247Y162629D01*
X40181Y162705D01*
X40169Y162721D01*
X40159Y162729D01*
X40141Y162750D01*
X6349Y196542D01*
X6349Y206176D01*
X6337Y206274D01*
X6334Y206373D01*
X6317Y206431D01*
X6309Y206491D01*
X6273Y206583D01*
X6245Y206679D01*
X6215Y206731D01*
X6192Y206787D01*
X6134Y206867D01*
X6084Y206952D01*
X6018Y207028D01*
X6006Y207044D01*
X5996Y207052D01*
X5978Y207073D01*
X3809Y209242D01*
X3809Y221416D01*
X3792Y221554D01*
X3779Y221692D01*
X3772Y221711D01*
X3769Y221731D01*
X3718Y221861D01*
X3671Y221992D01*
X3660Y222008D01*
X3652Y222027D01*
X3571Y222139D01*
X3493Y222255D01*
X3477Y222268D01*
X3466Y222284D01*
X3359Y222373D01*
X3254Y222465D01*
X3236Y222474D01*
X3221Y222487D01*
X3095Y222546D01*
X2971Y222610D01*
X2951Y222614D01*
X2933Y222623D01*
X2797Y222649D01*
X2661Y222679D01*
X2640Y222679D01*
X2621Y222683D01*
X2482Y222674D01*
X2343Y222670D01*
X2323Y222664D01*
X2303Y222663D01*
X2171Y222620D01*
X2037Y222581D01*
X2020Y222571D01*
X2001Y222565D01*
X1883Y222490D01*
X1763Y222420D01*
X1742Y222401D01*
X1732Y222395D01*
X1718Y222380D01*
X1642Y222313D01*
X1207Y221877D01*
X-15408Y205263D01*
X-15468Y205185D01*
X-15536Y205113D01*
X-15565Y205060D01*
X-15602Y205012D01*
X-15642Y204921D01*
X-15690Y204834D01*
X-15705Y204776D01*
X-15729Y204720D01*
X-15744Y204622D01*
X-15769Y204526D01*
X-15775Y204426D01*
X-15779Y204406D01*
X-15777Y204394D01*
X-15779Y204366D01*
X-15779Y201792D01*
X-16857Y199189D01*
X-18849Y197197D01*
X-21452Y196119D01*
X-21668Y196119D01*
X-21806Y196102D01*
X-21944Y196089D01*
X-21963Y196082D01*
X-21983Y196079D01*
X-22112Y196028D01*
X-22243Y195981D01*
X-22260Y195970D01*
X-22279Y195962D01*
X-22391Y195881D01*
X-22507Y195803D01*
X-22520Y195787D01*
X-22536Y195776D01*
X-22625Y195668D01*
X-22717Y195564D01*
X-22726Y195546D01*
X-22739Y195531D01*
X-22798Y195405D01*
X-22862Y195281D01*
X-22866Y195261D01*
X-22875Y195243D01*
X-22901Y195106D01*
X-22931Y194971D01*
X-22931Y194950D01*
X-22935Y194931D01*
X-22926Y194792D01*
X-22922Y194653D01*
X-22916Y194633D01*
X-22915Y194613D01*
X-22872Y194481D01*
X-22833Y194347D01*
X-22823Y194330D01*
X-22817Y194311D01*
X-22742Y194193D01*
X-22672Y194073D01*
X-22653Y194052D01*
X-22647Y194042D01*
X-22632Y194028D01*
X-22565Y193953D01*
X-21390Y192777D01*
X-21312Y192717D01*
X-21240Y192649D01*
X-21187Y192620D01*
X-21139Y192583D01*
X-21048Y192543D01*
X-20961Y192495D01*
X-20903Y192480D01*
X-20847Y192456D01*
X-20749Y192441D01*
X-20653Y192416D01*
X-20553Y192410D01*
X-20533Y192406D01*
X-20521Y192408D01*
X-20493Y192406D01*
X-6094Y192406D01*
X-5995Y192418D01*
X-5896Y192421D01*
X-5838Y192438D01*
X-5778Y192446D01*
X-5686Y192482D01*
X-5591Y192510D01*
X-5539Y192540D01*
X-5482Y192563D01*
X-5402Y192621D01*
X-5317Y192671D01*
X-5242Y192737D01*
X-5225Y192749D01*
X-5217Y192759D01*
X-5196Y192777D01*
X-4011Y193963D01*
X-1408Y195041D01*
X1408Y195041D01*
X4011Y193963D01*
X6003Y191971D01*
X7081Y189368D01*
X7081Y187692D01*
X7093Y187594D01*
X7096Y187495D01*
X7113Y187437D01*
X7121Y187377D01*
X7157Y187285D01*
X7185Y187190D01*
X7215Y187137D01*
X7238Y187081D01*
X7296Y187001D01*
X7346Y186916D01*
X7412Y186840D01*
X7424Y186824D01*
X7434Y186816D01*
X7452Y186795D01*
X34395Y159852D01*
X34473Y159792D01*
X34545Y159724D01*
X34598Y159695D01*
X34646Y159658D01*
X34737Y159618D01*
X34824Y159570D01*
X34882Y159555D01*
X34938Y159531D01*
X35036Y159516D01*
X35132Y159491D01*
X35232Y159485D01*
X35252Y159481D01*
X35264Y159483D01*
X35292Y159481D01*
X36968Y159481D01*
X38757Y158740D01*
X38805Y158727D01*
X38850Y158705D01*
X38958Y158685D01*
X39064Y158656D01*
X39114Y158655D01*
X39163Y158646D01*
X39272Y158653D01*
G37*
D10*
X-25400Y12700D03*
X-25400Y38100D03*
X0Y12700D03*
X0Y38100D03*
X25400Y12700D03*
X25400Y38100D03*
D11*
X38100Y203200D03*
X0Y203200D03*
X0Y347980D03*
X10160Y363220D03*
X-10160Y363220D03*
X20320Y347980D03*
X30480Y363220D03*
X40640Y347980D03*
X-20320Y347980D03*
X-40640Y347980D03*
X-30480Y363220D03*
X-40640Y167640D03*
X40640Y50800D03*
X-15240Y71120D03*
X-40640Y50800D03*
X-15240Y58420D03*
X-40640Y119380D03*
X7620Y269240D03*
X38100Y119380D03*
D12*
X44323Y125603D01*
X10160Y198120D02*
X10160Y208280D01*
X7620Y210820D01*
X7620Y269240D01*
X44323Y163957D02*
X44323Y125603D01*
X44323Y163957D02*
X10160Y198120D01*
D11*
X-5080Y279400D03*
X-22860Y139700D03*
D13*
X-33020Y208280D02*
X-5080Y236220D01*
X-5080Y279400D01*
X-22860Y187960D02*
X-22860Y139700D01*
D11*
X0Y187960D03*
D13*
X-22860Y187960D01*
D11*
X35560Y152400D03*
D13*
X0Y187960D01*
X-22860Y187960D02*
X-33020Y198120D01*
X-33020Y208280D01*
X0Y104140D02*
X0Y38100D01*
D11*
X0Y104140D03*
X20320Y119380D03*
D12*
X25400Y54610D02*
X25400Y38100D01*
X25400Y54610D02*
X20320Y59690D01*
X20320Y119380D01*
D11*
X0Y175260D03*
D12*
X10160Y165100D01*
X12700Y25400D02*
X25400Y12700D01*
X12700Y25400D02*
X12700Y45720D01*
X10160Y48260D01*
X10160Y165100D01*
D11*
X22860Y292100D03*
D12*
X27940Y287020D01*
X27940Y264160D02*
X20320Y256540D01*
X20320Y203200D01*
D11*
X20320Y203200D03*
D12*
X27940Y264160D02*
X27940Y287020D01*
D11*
X17780Y279400D03*
D12*
X0Y226060D02*
X-22860Y203200D01*
D11*
X-22860Y203200D03*
D12*
X6604Y279400D02*
X17780Y279400D01*
X6604Y279400D02*
X0Y272796D01*
X0Y226060D01*
D11*
X0Y160020D03*
D13*
X0Y139700D01*
X-22860Y116840D01*
D11*
X-22860Y116840D03*
M02*
