G04 EAGLE Gerber RS-274X export*
G75*
%MOMM*%
%FSLAX34Y34*%
%LPD*%
%INGBO*%
%IPPOS*%
%AMOC8*
5,1,8,0,0,1.08239X$1,22.5*%
G01*
%ADD10C,0.101600*%
%ADD11C,0.127000*%
%ADD12C,0.076200*%
%ADD13C,0.203200*%


D10*
X2209Y97501D02*
X6615Y101908D01*
X-6604Y101908D01*
X-6604Y106314D02*
X-6604Y97501D01*
X-6604Y110599D02*
X-6604Y119411D01*
X-6604Y110599D02*
X2209Y119411D01*
X4412Y119411D01*
X6615Y117208D01*
X6615Y112802D01*
X4412Y110599D01*
X4412Y123696D02*
X6615Y125899D01*
X6615Y130305D01*
X4412Y132509D01*
X2209Y132509D01*
X6Y130305D01*
X-2198Y132509D01*
X-4401Y132509D01*
X-6604Y130305D01*
X-6604Y125899D01*
X-4401Y123696D01*
X-2198Y123696D01*
X6Y125899D01*
X2209Y123696D01*
X4412Y123696D01*
X6Y125899D02*
X6Y130305D01*
X2209Y136793D02*
X-6604Y145606D01*
X-6604Y136793D02*
X2209Y145606D01*
X4412Y149890D02*
X6615Y152094D01*
X6615Y156500D01*
X4412Y158703D01*
X2209Y158703D01*
X6Y156500D01*
X6Y154297D01*
X6Y156500D02*
X-2198Y158703D01*
X-4401Y158703D01*
X-6604Y156500D01*
X-6604Y152094D01*
X-4401Y149890D01*
X-6604Y162988D02*
X-6604Y171800D01*
X-6604Y162988D02*
X2209Y171800D01*
X4412Y171800D01*
X6615Y169597D01*
X6615Y165191D01*
X4412Y162988D01*
X-6604Y189182D02*
X-6604Y193589D01*
X-6604Y191385D02*
X6615Y191385D01*
X6615Y189182D02*
X6615Y193589D01*
X-6604Y197914D02*
X-6604Y206726D01*
X-6604Y197914D02*
X2209Y206726D01*
X4412Y206726D01*
X6615Y204523D01*
X6615Y200117D01*
X4412Y197914D01*
X6615Y217620D02*
X4412Y219824D01*
X6615Y217620D02*
X6615Y213214D01*
X4412Y211011D01*
X-4401Y211011D01*
X-6604Y213214D01*
X-6604Y217620D01*
X-4401Y219824D01*
X6615Y239409D02*
X6615Y243815D01*
X6615Y239409D02*
X4412Y237205D01*
X-4401Y237205D01*
X-6604Y239409D01*
X-6604Y243815D01*
X-4401Y246018D01*
X4412Y246018D01*
X6615Y243815D01*
X6615Y250303D02*
X-6604Y250303D01*
X-6604Y259115D01*
X6615Y263400D02*
X6615Y272213D01*
X6615Y263400D02*
X-6604Y263400D01*
X-6604Y272213D01*
X6Y267806D02*
X6Y263400D01*
X6615Y276497D02*
X-6604Y276497D01*
X-6604Y283107D01*
X-4401Y285310D01*
X4412Y285310D01*
X6615Y283107D01*
X6615Y276497D01*
D11*
X10160Y22860D02*
X7620Y20320D01*
X10160Y22860D02*
X12700Y25400D01*
X12700Y45720D01*
X16510Y49530D01*
X12700Y22860D02*
X7620Y20320D01*
X12700Y22860D02*
X10160Y25400D01*
X7620Y20320D01*
X10160Y22860D02*
X12700Y22860D01*
X10160Y22860D02*
X10160Y25400D01*
D12*
X-36951Y28502D02*
X-41866Y28502D01*
X-44323Y30960D01*
X-41866Y33417D01*
X-36951Y33417D01*
X-44323Y35986D02*
X-44323Y38444D01*
X-44323Y37215D02*
X-36951Y37215D01*
X-36951Y35986D02*
X-36951Y38444D01*
X-36951Y40976D02*
X-44323Y40976D01*
X-44323Y45891D02*
X-36951Y40976D01*
X-36951Y45891D02*
X-44323Y45891D01*
X11488Y59569D02*
X12716Y58341D01*
X11488Y59569D02*
X9030Y59569D01*
X7801Y58341D01*
X7801Y57112D01*
X9030Y55883D01*
X10259Y55883D01*
X9030Y55883D02*
X7801Y54654D01*
X7801Y53426D01*
X9030Y52197D01*
X11488Y52197D01*
X12716Y53426D01*
X5232Y53426D02*
X5232Y52197D01*
X5232Y53426D02*
X4003Y53426D01*
X4003Y52197D01*
X5232Y52197D01*
X1490Y58341D02*
X261Y59569D01*
X-2196Y59569D01*
X-3425Y58341D01*
X-3425Y57112D01*
X-2196Y55883D01*
X-967Y55883D01*
X-2196Y55883D02*
X-3425Y54654D01*
X-3425Y53426D01*
X-2196Y52197D01*
X261Y52197D01*
X1490Y53426D01*
X-5994Y54654D02*
X-5994Y59569D01*
X-5994Y54654D02*
X-8452Y52197D01*
X-10909Y54654D01*
X-10909Y59569D01*
X-38179Y8040D02*
X-36951Y6811D01*
X-36951Y4353D01*
X-38179Y3125D01*
X-43094Y3125D01*
X-44323Y4353D01*
X-44323Y6811D01*
X-43094Y8040D01*
X-40637Y8040D01*
X-40637Y5582D01*
X-44323Y10609D02*
X-36951Y10609D01*
X-44323Y15524D01*
X-36951Y15524D01*
X-36951Y18093D02*
X-44323Y18093D01*
X-44323Y21779D01*
X-43094Y23008D01*
X-38179Y23008D01*
X-36951Y21779D01*
X-36951Y18093D01*
X36245Y52197D02*
X36245Y59569D01*
X32559Y59569D01*
X31330Y58341D01*
X31330Y55883D01*
X32559Y54654D01*
X36245Y54654D01*
X33788Y54654D02*
X31330Y52197D01*
X25075Y59569D02*
X23846Y58341D01*
X25075Y59569D02*
X27532Y59569D01*
X28761Y58341D01*
X28761Y57112D01*
X27532Y55883D01*
X25075Y55883D01*
X23846Y54654D01*
X23846Y53426D01*
X25075Y52197D01*
X27532Y52197D01*
X28761Y53426D01*
X18820Y52197D02*
X18820Y59569D01*
X21277Y59569D02*
X16362Y59569D01*
X43101Y8040D02*
X44329Y6811D01*
X44329Y4353D01*
X43101Y3125D01*
X41872Y3125D01*
X40643Y4353D01*
X40643Y6811D01*
X39414Y8040D01*
X38186Y8040D01*
X36957Y6811D01*
X36957Y4353D01*
X38186Y3125D01*
X44329Y14295D02*
X43101Y15524D01*
X44329Y14295D02*
X44329Y11838D01*
X43101Y10609D01*
X38186Y10609D01*
X36957Y11838D01*
X36957Y14295D01*
X38186Y15524D01*
X36957Y18093D02*
X44329Y18093D01*
X36957Y18093D02*
X36957Y23008D01*
X44329Y30941D02*
X43101Y32170D01*
X44329Y30941D02*
X44329Y28483D01*
X43101Y27255D01*
X41872Y27255D01*
X40643Y28483D01*
X40643Y30941D01*
X39414Y32170D01*
X38186Y32170D01*
X36957Y30941D01*
X36957Y28483D01*
X38186Y27255D01*
X36957Y34739D02*
X44329Y34739D01*
X36957Y34739D02*
X36957Y38425D01*
X38186Y39654D01*
X43101Y39654D01*
X44329Y38425D01*
X44329Y34739D01*
X41872Y42223D02*
X36957Y42223D01*
X41872Y42223D02*
X44329Y44680D01*
X41872Y47138D01*
X36957Y47138D01*
X40643Y47138D02*
X40643Y42223D01*
D13*
X-15240Y318770D02*
X17780Y325120D01*
X-2540Y330962D01*
X-3302Y322580D01*
X-12446Y331724D01*
X-13208Y321564D01*
X-4064Y330454D01*
X-15240Y335280D01*
D12*
X40012Y364779D02*
X40012Y369694D01*
X38783Y370922D01*
X36326Y370922D01*
X35097Y369694D01*
X35097Y364779D01*
X36326Y363550D01*
X38783Y363550D01*
X40012Y364779D01*
X35097Y369694D01*
X32528Y364779D02*
X32528Y363550D01*
X32528Y364779D02*
X31299Y364779D01*
X31299Y363550D01*
X32528Y363550D01*
X28786Y364779D02*
X27557Y363550D01*
X25100Y363550D01*
X23871Y364779D01*
X23871Y369694D01*
X25100Y370922D01*
X27557Y370922D01*
X28786Y369694D01*
X28786Y368465D01*
X27557Y367236D01*
X23871Y367236D01*
X21302Y368465D02*
X18844Y370922D01*
X18844Y363550D01*
X16387Y363550D02*
X21302Y363550D01*
X13818Y368465D02*
X12589Y368465D01*
X12589Y363550D01*
X13818Y363550D02*
X11360Y363550D01*
X12589Y370922D02*
X12589Y372151D01*
X8828Y368465D02*
X8828Y363550D01*
X8828Y368465D02*
X5142Y368465D01*
X3913Y367236D01*
X3913Y363550D01*
X115Y368465D02*
X-3571Y368465D01*
X115Y368465D02*
X1344Y367236D01*
X1344Y364779D01*
X115Y363550D01*
X-3571Y363550D01*
X-6140Y363550D02*
X-6140Y370922D01*
X-7369Y368465D02*
X-6140Y367236D01*
X-7369Y368465D02*
X-9826Y368465D01*
X-11055Y367236D01*
X-11055Y363550D01*
X-13624Y362322D02*
X-18539Y362322D01*
X-21109Y370922D02*
X-26023Y370922D01*
X-21109Y370922D02*
X-21109Y363550D01*
X-26023Y363550D01*
X-23566Y367236D02*
X-21109Y367236D01*
X-28593Y366008D02*
X-28593Y370922D01*
X-28593Y366008D02*
X-31050Y363550D01*
X-33508Y366008D01*
X-33508Y370922D01*
X-36077Y370922D02*
X-36077Y363550D01*
X-38534Y368465D02*
X-36077Y370922D01*
X-38534Y368465D02*
X-40992Y370922D01*
X-40992Y363550D01*
X-19824Y352984D02*
X-17366Y357899D01*
X-22281Y357899D02*
X-19824Y352984D01*
X-24851Y357899D02*
X-27308Y360356D01*
X-27308Y352984D01*
X-24851Y352984D02*
X-29765Y352984D01*
X-32335Y352984D02*
X-32335Y354213D01*
X-33563Y354213D01*
X-33563Y352984D01*
X-32335Y352984D01*
X-36077Y354213D02*
X-36077Y359127D01*
X-37306Y360356D01*
X-39763Y360356D01*
X-40992Y359127D01*
X-40992Y354213D01*
X-39763Y352984D01*
X-37306Y352984D01*
X-36077Y354213D01*
X-40992Y359127D01*
D11*
X42900Y350520D02*
X42900Y65120D01*
X42900Y350520D02*
X-42900Y350520D01*
X-42900Y65120D01*
X42900Y65120D01*
X27900Y292665D02*
X27900Y303920D01*
X27900Y282665D02*
X27900Y271411D01*
X27900Y261411D02*
X27900Y250156D01*
X27900Y240156D02*
X27900Y228902D01*
X27900Y218902D02*
X27900Y207647D01*
X27900Y197647D02*
X27900Y186393D01*
X27900Y176393D02*
X27900Y165138D01*
X27900Y155138D02*
X27900Y143884D01*
X27900Y133884D02*
X27900Y122629D01*
X27900Y112629D02*
X27900Y101375D01*
X27900Y91375D02*
X27900Y80120D01*
X-27900Y292665D02*
X-27900Y303920D01*
X-27900Y282665D02*
X-27900Y271411D01*
X-27900Y261411D02*
X-27900Y250156D01*
X-27900Y240156D02*
X-27900Y228902D01*
X-27900Y218902D02*
X-27900Y207647D01*
X-27900Y197647D02*
X-27900Y186393D01*
X-27900Y176393D02*
X-27900Y165138D01*
X-27900Y155138D02*
X-27900Y143884D01*
X-27900Y133884D02*
X-27900Y122629D01*
X-27900Y112629D02*
X-27900Y101375D01*
X-27900Y91375D02*
X-27900Y80120D01*
X15967Y303920D02*
X27900Y303920D01*
X5967Y303920D02*
X-5967Y303920D01*
X-15967Y303920D02*
X-27900Y303920D01*
X15967Y80120D02*
X27900Y80120D01*
X5967Y80120D02*
X-5967Y80120D01*
X-15967Y80120D02*
X-27900Y80120D01*
D13*
X-31750Y-3350D02*
X-19050Y-3350D01*
M02*
