G04 EAGLE Gerber RS-274X export*
G75*
%MOMM*%
%FSLAX34Y34*%
%LPD*%
%INGPT*%
%IPPOS*%
%AMOC8*
5,1,8,0,0,1.08239X$1,22.5*%
G01*
%ADD10R,1.000000X1.100000*%
%ADD11R,1.100000X1.000000*%
%ADD12R,1.000000X0.800000*%
%ADD13R,1.000000X1.270000*%
%ADD14R,0.350000X3.200000*%
%ADD15C,0.363000*%


D10*
X-35560Y235340D03*
X-35560Y252340D03*
X-22860Y270900D03*
X-22860Y287900D03*
X-15240Y235340D03*
X-15240Y252340D03*
X0Y235340D03*
X0Y252340D03*
X35560Y235340D03*
X35560Y252340D03*
X20320Y235340D03*
X20320Y252340D03*
D11*
X31360Y215900D03*
X14360Y215900D03*
X14360Y190500D03*
X31360Y190500D03*
X-31360Y215900D03*
X-14360Y215900D03*
X31360Y134620D03*
X14360Y134620D03*
X-31360Y152400D03*
X-14360Y152400D03*
X-31360Y86360D03*
X-14360Y86360D03*
X31360Y104140D03*
X14360Y104140D03*
D12*
X32860Y86360D03*
X12860Y86360D03*
D13*
X22860Y152560D03*
X13360Y172560D03*
X32360Y172560D03*
X-22860Y170340D03*
X-32360Y190340D03*
X-13360Y190340D03*
D14*
X-40300Y321640D03*
X-34100Y321640D03*
X-27900Y321640D03*
X-21700Y321640D03*
X-15500Y321640D03*
X-9300Y321640D03*
X-3100Y321640D03*
X3100Y321640D03*
X9300Y321640D03*
X15500Y321640D03*
X21700Y321640D03*
X27900Y321640D03*
X34100Y321640D03*
X40300Y321640D03*
D15*
X-31425Y99654D02*
X-33295Y99654D01*
X-33295Y108024D01*
X-31425Y108024D01*
X-31425Y99654D01*
X-31425Y103102D02*
X-33295Y103102D01*
X-33295Y106550D02*
X-31425Y106550D01*
X-23795Y99654D02*
X-21925Y99654D01*
X-23795Y99654D02*
X-23795Y108024D01*
X-21925Y108024D01*
X-21925Y99654D01*
X-21925Y103102D02*
X-23795Y103102D01*
X-23795Y106550D02*
X-21925Y106550D01*
X-14295Y99654D02*
X-12425Y99654D01*
X-14295Y99654D02*
X-14295Y108024D01*
X-12425Y108024D01*
X-12425Y99654D01*
X-12425Y103102D02*
X-14295Y103102D01*
X-14295Y106550D02*
X-12425Y106550D01*
X-12425Y125656D02*
X-14295Y125656D01*
X-14295Y134026D01*
X-12425Y134026D01*
X-12425Y125656D01*
X-12425Y129104D02*
X-14295Y129104D01*
X-14295Y132552D02*
X-12425Y132552D01*
X-31425Y125656D02*
X-33295Y125656D01*
X-33295Y134026D01*
X-31425Y134026D01*
X-31425Y125656D01*
X-31425Y129104D02*
X-33295Y129104D01*
X-33295Y132552D02*
X-31425Y132552D01*
M02*
