G04 EAGLE Gerber RS-274X export*
G75*
%MOMM*%
%FSLAX34Y34*%
%LPD*%
%INGTL*%
%IPPOS*%
%AMOC8*
5,1,8,0,0,1.08239X$1,22.5*%
G01*
%ADD10R,1.000000X1.100000*%
%ADD11R,1.100000X1.000000*%
%ADD12R,1.000000X0.800000*%
%ADD13R,1.000000X1.270000*%
%ADD14R,0.350000X3.200000*%
%ADD15C,0.363000*%
%ADD16C,1.879600*%
%ADD17C,0.254000*%
%ADD18C,0.908000*%
%ADD19C,0.381000*%

G36*
X-9778Y2685D02*
X-9778Y2685D01*
X-9640Y2698D01*
X-9621Y2705D01*
X-9600Y2708D01*
X-9471Y2759D01*
X-9340Y2806D01*
X-9323Y2817D01*
X-9305Y2825D01*
X-9192Y2906D01*
X-9077Y2984D01*
X-9064Y3000D01*
X-9047Y3011D01*
X-8959Y3119D01*
X-8867Y3223D01*
X-8857Y3241D01*
X-8845Y3256D01*
X-8785Y3382D01*
X-8722Y3506D01*
X-8718Y3526D01*
X-8709Y3544D01*
X-8683Y3681D01*
X-8652Y3816D01*
X-8653Y3837D01*
X-8649Y3856D01*
X-8658Y3995D01*
X-8662Y4134D01*
X-8668Y4154D01*
X-8669Y4174D01*
X-8712Y4306D01*
X-8750Y4440D01*
X-8761Y4457D01*
X-8767Y4476D01*
X-8841Y4594D01*
X-8912Y4714D01*
X-8931Y4735D01*
X-8937Y4745D01*
X-8952Y4759D01*
X-9018Y4834D01*
X-10121Y5937D01*
X-11939Y10325D01*
X-11939Y15075D01*
X-10121Y19463D01*
X-6763Y22821D01*
X-3368Y24227D01*
X-3247Y24296D01*
X-3124Y24361D01*
X-3109Y24375D01*
X-3092Y24385D01*
X-2992Y24482D01*
X-2889Y24575D01*
X-2878Y24592D01*
X-2863Y24606D01*
X-2791Y24724D01*
X-2714Y24841D01*
X-2708Y24860D01*
X-2697Y24877D01*
X-2656Y25010D01*
X-2611Y25142D01*
X-2609Y25162D01*
X-2603Y25181D01*
X-2597Y25320D01*
X-2586Y25459D01*
X-2589Y25479D01*
X-2588Y25499D01*
X-2616Y25635D01*
X-2640Y25772D01*
X-2648Y25791D01*
X-2652Y25810D01*
X-2714Y25935D01*
X-2771Y26062D01*
X-2783Y26078D01*
X-2792Y26096D01*
X-2883Y26202D01*
X-2969Y26310D01*
X-2985Y26323D01*
X-2999Y26338D01*
X-3112Y26418D01*
X-3223Y26502D01*
X-3249Y26514D01*
X-3259Y26521D01*
X-3278Y26528D01*
X-3368Y26573D01*
X-6763Y27979D01*
X-10121Y31337D01*
X-11527Y34732D01*
X-11596Y34853D01*
X-11661Y34976D01*
X-11675Y34991D01*
X-11685Y35008D01*
X-11782Y35108D01*
X-11875Y35211D01*
X-11892Y35222D01*
X-11906Y35237D01*
X-12025Y35309D01*
X-12141Y35386D01*
X-12160Y35392D01*
X-12177Y35403D01*
X-12310Y35444D01*
X-12442Y35489D01*
X-12462Y35491D01*
X-12481Y35497D01*
X-12620Y35503D01*
X-12759Y35514D01*
X-12779Y35511D01*
X-12799Y35512D01*
X-12935Y35484D01*
X-13072Y35460D01*
X-13091Y35452D01*
X-13110Y35448D01*
X-13236Y35386D01*
X-13362Y35329D01*
X-13378Y35317D01*
X-13396Y35308D01*
X-13502Y35217D01*
X-13610Y35131D01*
X-13623Y35115D01*
X-13638Y35101D01*
X-13718Y34988D01*
X-13802Y34877D01*
X-13814Y34851D01*
X-13821Y34841D01*
X-13828Y34822D01*
X-13873Y34732D01*
X-15279Y31337D01*
X-18637Y27979D01*
X-23025Y26161D01*
X-27775Y26161D01*
X-32163Y27979D01*
X-35521Y31337D01*
X-37339Y35725D01*
X-37339Y40475D01*
X-35521Y44863D01*
X-32163Y48221D01*
X-30629Y48856D01*
X-30604Y48871D01*
X-30576Y48880D01*
X-30466Y48949D01*
X-30353Y49014D01*
X-30332Y49034D01*
X-30307Y49050D01*
X-30218Y49145D01*
X-30125Y49235D01*
X-30109Y49260D01*
X-30089Y49282D01*
X-30026Y49396D01*
X-29958Y49506D01*
X-29950Y49535D01*
X-29935Y49560D01*
X-29903Y49686D01*
X-29865Y49810D01*
X-29863Y49840D01*
X-29856Y49868D01*
X-29846Y50029D01*
X-29846Y77550D01*
X-29861Y77668D01*
X-29868Y77787D01*
X-29881Y77825D01*
X-29886Y77866D01*
X-29929Y77976D01*
X-29966Y78089D01*
X-29988Y78124D01*
X-30003Y78161D01*
X-30072Y78257D01*
X-30136Y78358D01*
X-30166Y78386D01*
X-30189Y78419D01*
X-30281Y78495D01*
X-30368Y78576D01*
X-30403Y78596D01*
X-30434Y78621D01*
X-30542Y78672D01*
X-30646Y78730D01*
X-30686Y78740D01*
X-30722Y78757D01*
X-30839Y78779D01*
X-30954Y78809D01*
X-31014Y78813D01*
X-31034Y78817D01*
X-31055Y78815D01*
X-31115Y78819D01*
X-37912Y78819D01*
X-39401Y80308D01*
X-39401Y92412D01*
X-37894Y93920D01*
X-37838Y93923D01*
X-37800Y93936D01*
X-37759Y93941D01*
X-37649Y93984D01*
X-37536Y94021D01*
X-37501Y94043D01*
X-37464Y94058D01*
X-37368Y94127D01*
X-37267Y94191D01*
X-37239Y94221D01*
X-37206Y94244D01*
X-37130Y94336D01*
X-37049Y94423D01*
X-37029Y94458D01*
X-37004Y94489D01*
X-36953Y94597D01*
X-36895Y94701D01*
X-36885Y94741D01*
X-36868Y94777D01*
X-36846Y94894D01*
X-36816Y95009D01*
X-36812Y95069D01*
X-36808Y95089D01*
X-36810Y95110D01*
X-36806Y95170D01*
X-36806Y96479D01*
X-36818Y96577D01*
X-36821Y96676D01*
X-36838Y96734D01*
X-36846Y96795D01*
X-36882Y96887D01*
X-36910Y96982D01*
X-36940Y97034D01*
X-36963Y97090D01*
X-37021Y97170D01*
X-37071Y97256D01*
X-37137Y97331D01*
X-37149Y97348D01*
X-37159Y97355D01*
X-37177Y97377D01*
X-37651Y97850D01*
X-37651Y109828D01*
X-37177Y110301D01*
X-37117Y110380D01*
X-37049Y110452D01*
X-37020Y110505D01*
X-36983Y110553D01*
X-36943Y110644D01*
X-36895Y110730D01*
X-36880Y110789D01*
X-36856Y110845D01*
X-36841Y110943D01*
X-36816Y111038D01*
X-36810Y111138D01*
X-36806Y111159D01*
X-36808Y111171D01*
X-36806Y111199D01*
X-36806Y114261D01*
X-32757Y118310D01*
X-31934Y119134D01*
X-31849Y119243D01*
X-31760Y119350D01*
X-31751Y119369D01*
X-31739Y119385D01*
X-31683Y119513D01*
X-31624Y119638D01*
X-31620Y119658D01*
X-31612Y119677D01*
X-31590Y119815D01*
X-31564Y119951D01*
X-31566Y119971D01*
X-31563Y119991D01*
X-31576Y120130D01*
X-31584Y120268D01*
X-31590Y120287D01*
X-31592Y120307D01*
X-31639Y120438D01*
X-31682Y120570D01*
X-31693Y120588D01*
X-31700Y120607D01*
X-31778Y120721D01*
X-31852Y120839D01*
X-31867Y120853D01*
X-31879Y120870D01*
X-31983Y120962D01*
X-32084Y121057D01*
X-32102Y121067D01*
X-32117Y121080D01*
X-32241Y121143D01*
X-32363Y121211D01*
X-32382Y121216D01*
X-32400Y121225D01*
X-32536Y121255D01*
X-32670Y121290D01*
X-32699Y121292D01*
X-32710Y121295D01*
X-32731Y121294D01*
X-32831Y121300D01*
X-35099Y121300D01*
X-37651Y123852D01*
X-37651Y135830D01*
X-35099Y138382D01*
X-31210Y138382D01*
X-31092Y138397D01*
X-30973Y138404D01*
X-30935Y138417D01*
X-30894Y138422D01*
X-30784Y138465D01*
X-30671Y138502D01*
X-30636Y138524D01*
X-30599Y138539D01*
X-30503Y138608D01*
X-30402Y138672D01*
X-30374Y138702D01*
X-30341Y138725D01*
X-30265Y138817D01*
X-30184Y138904D01*
X-30164Y138939D01*
X-30139Y138970D01*
X-30088Y139078D01*
X-30030Y139182D01*
X-30020Y139222D01*
X-30003Y139258D01*
X-29981Y139375D01*
X-29951Y139490D01*
X-29947Y139550D01*
X-29943Y139570D01*
X-29945Y139591D01*
X-29941Y139651D01*
X-29941Y141108D01*
X-29114Y143104D01*
X-29104Y143142D01*
X-29094Y143162D01*
X-29093Y143169D01*
X-29080Y143197D01*
X-29059Y143305D01*
X-29030Y143411D01*
X-29029Y143461D01*
X-29020Y143510D01*
X-29027Y143619D01*
X-29025Y143729D01*
X-29037Y143777D01*
X-29040Y143827D01*
X-29074Y143931D01*
X-29099Y144038D01*
X-29122Y144082D01*
X-29138Y144129D01*
X-29197Y144222D01*
X-29248Y144319D01*
X-29281Y144356D01*
X-29308Y144398D01*
X-29388Y144473D01*
X-29462Y144555D01*
X-29503Y144582D01*
X-29540Y144616D01*
X-29636Y144669D01*
X-29728Y144729D01*
X-29775Y144746D01*
X-29818Y144770D01*
X-29924Y144797D01*
X-30028Y144833D01*
X-30078Y144837D01*
X-30126Y144849D01*
X-30287Y144859D01*
X-37912Y144859D01*
X-39401Y146348D01*
X-39401Y158452D01*
X-37912Y159941D01*
X-30468Y159941D01*
X-30330Y159958D01*
X-30192Y159971D01*
X-30173Y159978D01*
X-30153Y159981D01*
X-30023Y160032D01*
X-29892Y160079D01*
X-29876Y160090D01*
X-29857Y160098D01*
X-29745Y160179D01*
X-29629Y160257D01*
X-29616Y160273D01*
X-29600Y160284D01*
X-29511Y160392D01*
X-29419Y160496D01*
X-29410Y160514D01*
X-29397Y160529D01*
X-29337Y160655D01*
X-29274Y160779D01*
X-29270Y160799D01*
X-29261Y160817D01*
X-29235Y160954D01*
X-29205Y161089D01*
X-29205Y161110D01*
X-29201Y161129D01*
X-29210Y161268D01*
X-29214Y161407D01*
X-29220Y161427D01*
X-29221Y161447D01*
X-29264Y161579D01*
X-29303Y161713D01*
X-29313Y161730D01*
X-29319Y161749D01*
X-29394Y161867D01*
X-29464Y161987D01*
X-29483Y162008D01*
X-29489Y162018D01*
X-29504Y162032D01*
X-29571Y162107D01*
X-30401Y162938D01*
X-30401Y177742D01*
X-28861Y179283D01*
X-28775Y179392D01*
X-28687Y179499D01*
X-28678Y179518D01*
X-28666Y179534D01*
X-28610Y179662D01*
X-28551Y179787D01*
X-28547Y179807D01*
X-28539Y179826D01*
X-28517Y179964D01*
X-28491Y180100D01*
X-28493Y180120D01*
X-28489Y180140D01*
X-28503Y180279D01*
X-28511Y180417D01*
X-28517Y180436D01*
X-28519Y180456D01*
X-28566Y180588D01*
X-28609Y180719D01*
X-28620Y180737D01*
X-28627Y180756D01*
X-28705Y180871D01*
X-28779Y180988D01*
X-28794Y181002D01*
X-28805Y181019D01*
X-28910Y181111D01*
X-29011Y181206D01*
X-29029Y181216D01*
X-29044Y181229D01*
X-29168Y181293D01*
X-29289Y181360D01*
X-29309Y181365D01*
X-29327Y181374D01*
X-29463Y181404D01*
X-29597Y181439D01*
X-29625Y181441D01*
X-29637Y181444D01*
X-29658Y181443D01*
X-29758Y181449D01*
X-38412Y181449D01*
X-39901Y182938D01*
X-39901Y197742D01*
X-38412Y199231D01*
X-36440Y199231D01*
X-36322Y199246D01*
X-36203Y199253D01*
X-36165Y199266D01*
X-36124Y199271D01*
X-36014Y199314D01*
X-35901Y199351D01*
X-35866Y199373D01*
X-35829Y199388D01*
X-35733Y199457D01*
X-35632Y199521D01*
X-35604Y199551D01*
X-35571Y199574D01*
X-35495Y199666D01*
X-35414Y199753D01*
X-35394Y199788D01*
X-35369Y199819D01*
X-35318Y199927D01*
X-35260Y200031D01*
X-35250Y200071D01*
X-35233Y200107D01*
X-35211Y200224D01*
X-35181Y200339D01*
X-35177Y200399D01*
X-35173Y200419D01*
X-35175Y200440D01*
X-35171Y200500D01*
X-35171Y207090D01*
X-35186Y207208D01*
X-35193Y207327D01*
X-35206Y207365D01*
X-35211Y207406D01*
X-35254Y207516D01*
X-35291Y207629D01*
X-35313Y207664D01*
X-35328Y207701D01*
X-35397Y207797D01*
X-35461Y207898D01*
X-35491Y207926D01*
X-35514Y207959D01*
X-35606Y208035D01*
X-35693Y208116D01*
X-35728Y208136D01*
X-35759Y208161D01*
X-35867Y208212D01*
X-35971Y208270D01*
X-36011Y208280D01*
X-36047Y208297D01*
X-36164Y208319D01*
X-36279Y208349D01*
X-36339Y208353D01*
X-36359Y208357D01*
X-36380Y208355D01*
X-36440Y208359D01*
X-37912Y208359D01*
X-39401Y209848D01*
X-39401Y221952D01*
X-37912Y223441D01*
X-24808Y223441D01*
X-23758Y222391D01*
X-23663Y222318D01*
X-23574Y222239D01*
X-23538Y222220D01*
X-23506Y222196D01*
X-23397Y222148D01*
X-23291Y222094D01*
X-23252Y222085D01*
X-23214Y222069D01*
X-23097Y222051D01*
X-22981Y222025D01*
X-22940Y222026D01*
X-22900Y222020D01*
X-22782Y222031D01*
X-22663Y222034D01*
X-22624Y222046D01*
X-22584Y222049D01*
X-22471Y222090D01*
X-22357Y222123D01*
X-22323Y222143D01*
X-22284Y222157D01*
X-22186Y222224D01*
X-22083Y222284D01*
X-22038Y222324D01*
X-22021Y222336D01*
X-22008Y222351D01*
X-21963Y222391D01*
X-20912Y223441D01*
X-7808Y223441D01*
X-6319Y221952D01*
X-6319Y209848D01*
X-7808Y208359D01*
X-9280Y208359D01*
X-9398Y208344D01*
X-9517Y208337D01*
X-9555Y208324D01*
X-9596Y208319D01*
X-9706Y208276D01*
X-9819Y208239D01*
X-9854Y208217D01*
X-9891Y208202D01*
X-9987Y208133D01*
X-10088Y208069D01*
X-10116Y208039D01*
X-10149Y208016D01*
X-10225Y207924D01*
X-10306Y207837D01*
X-10326Y207802D01*
X-10351Y207771D01*
X-10402Y207663D01*
X-10460Y207559D01*
X-10470Y207519D01*
X-10487Y207483D01*
X-10509Y207366D01*
X-10539Y207251D01*
X-10543Y207191D01*
X-10547Y207171D01*
X-10545Y207150D01*
X-10549Y207090D01*
X-10549Y200500D01*
X-10534Y200382D01*
X-10527Y200263D01*
X-10514Y200225D01*
X-10509Y200184D01*
X-10466Y200074D01*
X-10429Y199961D01*
X-10407Y199926D01*
X-10392Y199889D01*
X-10323Y199793D01*
X-10259Y199692D01*
X-10229Y199664D01*
X-10206Y199631D01*
X-10114Y199555D01*
X-10027Y199474D01*
X-9992Y199454D01*
X-9961Y199429D01*
X-9853Y199378D01*
X-9749Y199320D01*
X-9709Y199310D01*
X-9673Y199293D01*
X-9556Y199271D01*
X-9441Y199241D01*
X-9381Y199237D01*
X-9361Y199233D01*
X-9340Y199235D01*
X-9280Y199231D01*
X-7308Y199231D01*
X-5819Y197742D01*
X-5819Y195113D01*
X-5813Y195064D01*
X-5815Y195014D01*
X-5793Y194907D01*
X-5779Y194798D01*
X-5761Y194751D01*
X-5751Y194703D01*
X-5703Y194604D01*
X-5662Y194502D01*
X-5633Y194462D01*
X-5611Y194417D01*
X-5540Y194334D01*
X-5476Y194245D01*
X-5437Y194213D01*
X-5405Y194175D01*
X-5315Y194112D01*
X-5231Y194042D01*
X-5186Y194021D01*
X-5145Y193992D01*
X-5042Y193953D01*
X-4943Y193906D01*
X-4894Y193897D01*
X-4848Y193879D01*
X-4738Y193867D01*
X-4631Y193847D01*
X-4581Y193850D01*
X-4532Y193844D01*
X-4423Y193859D01*
X-4313Y193866D01*
X-4266Y193882D01*
X-4217Y193889D01*
X-4064Y193941D01*
X-1408Y195041D01*
X1408Y195041D01*
X4011Y193963D01*
X4152Y193821D01*
X4262Y193736D01*
X4369Y193647D01*
X4388Y193639D01*
X4404Y193626D01*
X4532Y193571D01*
X4657Y193512D01*
X4677Y193508D01*
X4696Y193500D01*
X4833Y193478D01*
X4970Y193452D01*
X4990Y193453D01*
X5010Y193450D01*
X5148Y193463D01*
X5287Y193472D01*
X5306Y193478D01*
X5326Y193480D01*
X5457Y193527D01*
X5589Y193570D01*
X5607Y193581D01*
X5626Y193587D01*
X5741Y193665D01*
X5858Y193740D01*
X5872Y193755D01*
X5889Y193766D01*
X5981Y193870D01*
X6076Y193971D01*
X6086Y193989D01*
X6099Y194004D01*
X6162Y194128D01*
X6230Y194250D01*
X6235Y194270D01*
X6244Y194288D01*
X6274Y194423D01*
X6309Y194558D01*
X6311Y194586D01*
X6314Y194598D01*
X6313Y194618D01*
X6319Y194719D01*
X6319Y196552D01*
X7808Y198041D01*
X12893Y198041D01*
X12943Y198047D01*
X12992Y198045D01*
X13100Y198067D01*
X13209Y198081D01*
X13255Y198099D01*
X13304Y198109D01*
X13402Y198157D01*
X13505Y198198D01*
X13545Y198227D01*
X13589Y198249D01*
X13673Y198320D01*
X13762Y198384D01*
X13794Y198423D01*
X13831Y198455D01*
X13895Y198545D01*
X13965Y198629D01*
X13986Y198674D01*
X14015Y198715D01*
X14053Y198818D01*
X14100Y198917D01*
X14110Y198966D01*
X14127Y199012D01*
X14139Y199122D01*
X14160Y199229D01*
X14157Y199279D01*
X14162Y199328D01*
X14147Y199437D01*
X14140Y199547D01*
X14125Y199594D01*
X14118Y199643D01*
X14066Y199796D01*
X13239Y201792D01*
X13239Y204608D01*
X14066Y206604D01*
X14079Y206652D01*
X14100Y206697D01*
X14121Y206805D01*
X14150Y206911D01*
X14151Y206961D01*
X14160Y207010D01*
X14153Y207119D01*
X14155Y207229D01*
X14143Y207277D01*
X14140Y207327D01*
X14106Y207431D01*
X14081Y207538D01*
X14058Y207582D01*
X14042Y207629D01*
X13983Y207722D01*
X13932Y207819D01*
X13899Y207856D01*
X13872Y207898D01*
X13792Y207973D01*
X13718Y208055D01*
X13677Y208082D01*
X13640Y208116D01*
X13544Y208169D01*
X13452Y208229D01*
X13405Y208246D01*
X13362Y208270D01*
X13256Y208297D01*
X13152Y208333D01*
X13102Y208337D01*
X13054Y208349D01*
X12893Y208359D01*
X7808Y208359D01*
X6319Y209848D01*
X6319Y218026D01*
X6307Y218124D01*
X6304Y218223D01*
X6287Y218281D01*
X6279Y218341D01*
X6243Y218433D01*
X6215Y218529D01*
X6185Y218581D01*
X6162Y218637D01*
X6104Y218717D01*
X6054Y218802D01*
X5988Y218878D01*
X5976Y218894D01*
X5966Y218902D01*
X5947Y218923D01*
X5079Y219792D01*
X5079Y243030D01*
X5064Y243148D01*
X5057Y243267D01*
X5044Y243305D01*
X5039Y243346D01*
X4996Y243456D01*
X4959Y243569D01*
X4937Y243604D01*
X4922Y243641D01*
X4853Y243737D01*
X4789Y243838D01*
X4759Y243866D01*
X4736Y243899D01*
X4644Y243975D01*
X4557Y244056D01*
X4522Y244076D01*
X4491Y244101D01*
X4383Y244152D01*
X4279Y244210D01*
X4239Y244220D01*
X4203Y244237D01*
X4086Y244259D01*
X3971Y244289D01*
X3911Y244293D01*
X3891Y244297D01*
X3870Y244295D01*
X3810Y244299D01*
X-6052Y244299D01*
X-6723Y244969D01*
X-6817Y245042D01*
X-6906Y245121D01*
X-6942Y245139D01*
X-6974Y245164D01*
X-7083Y245212D01*
X-7189Y245266D01*
X-7228Y245275D01*
X-7266Y245291D01*
X-7383Y245309D01*
X-7499Y245335D01*
X-7540Y245334D01*
X-7580Y245340D01*
X-7698Y245329D01*
X-7817Y245326D01*
X-7856Y245314D01*
X-7896Y245311D01*
X-8008Y245270D01*
X-8123Y245237D01*
X-8158Y245217D01*
X-8196Y245203D01*
X-8294Y245136D01*
X-8397Y245076D01*
X-8442Y245036D01*
X-8459Y245024D01*
X-8472Y245009D01*
X-8518Y244969D01*
X-9188Y244299D01*
X-21296Y244299D01*
X-21390Y244373D01*
X-21497Y244461D01*
X-21516Y244470D01*
X-21532Y244482D01*
X-21659Y244538D01*
X-21785Y244597D01*
X-21805Y244601D01*
X-21824Y244609D01*
X-21961Y244630D01*
X-22098Y244657D01*
X-22118Y244655D01*
X-22138Y244658D01*
X-22276Y244645D01*
X-22415Y244637D01*
X-22434Y244631D01*
X-22454Y244629D01*
X-22586Y244582D01*
X-22717Y244539D01*
X-22734Y244528D01*
X-22754Y244521D01*
X-22869Y244443D01*
X-22986Y244369D01*
X-23000Y244354D01*
X-23017Y244343D01*
X-23109Y244238D01*
X-23204Y244137D01*
X-23214Y244119D01*
X-23227Y244104D01*
X-23291Y243980D01*
X-23358Y243859D01*
X-23363Y243839D01*
X-23372Y243821D01*
X-23402Y243685D01*
X-23437Y243551D01*
X-23439Y243523D01*
X-23442Y243511D01*
X-23441Y243490D01*
X-23447Y243390D01*
X-23447Y242064D01*
X-27648Y237863D01*
X-27708Y237785D01*
X-27776Y237713D01*
X-27805Y237660D01*
X-27842Y237612D01*
X-27882Y237521D01*
X-27930Y237434D01*
X-27945Y237376D01*
X-27969Y237320D01*
X-27984Y237222D01*
X-28009Y237126D01*
X-28015Y237026D01*
X-28019Y237006D01*
X-28017Y236994D01*
X-28019Y236966D01*
X-28019Y228788D01*
X-29508Y227299D01*
X-41612Y227299D01*
X-43426Y229112D01*
X-43535Y229198D01*
X-43642Y229286D01*
X-43661Y229295D01*
X-43677Y229307D01*
X-43805Y229363D01*
X-43930Y229422D01*
X-43950Y229426D01*
X-43969Y229434D01*
X-44107Y229456D01*
X-44243Y229482D01*
X-44263Y229480D01*
X-44283Y229484D01*
X-44422Y229470D01*
X-44560Y229462D01*
X-44579Y229456D01*
X-44599Y229454D01*
X-44731Y229407D01*
X-44862Y229364D01*
X-44880Y229353D01*
X-44899Y229346D01*
X-45014Y229268D01*
X-45131Y229194D01*
X-45145Y229179D01*
X-45162Y229168D01*
X-45254Y229063D01*
X-45349Y228962D01*
X-45359Y228944D01*
X-45372Y228929D01*
X-45436Y228805D01*
X-45503Y228684D01*
X-45508Y228664D01*
X-45517Y228646D01*
X-45547Y228510D01*
X-45582Y228376D01*
X-45584Y228348D01*
X-45587Y228336D01*
X-45586Y228315D01*
X-45592Y228215D01*
X-45592Y3937D01*
X-45577Y3819D01*
X-45570Y3700D01*
X-45557Y3662D01*
X-45552Y3621D01*
X-45509Y3511D01*
X-45472Y3398D01*
X-45450Y3363D01*
X-45435Y3326D01*
X-45366Y3230D01*
X-45302Y3129D01*
X-45272Y3101D01*
X-45249Y3068D01*
X-45157Y2992D01*
X-45070Y2911D01*
X-45035Y2891D01*
X-45004Y2866D01*
X-44896Y2815D01*
X-44792Y2757D01*
X-44752Y2747D01*
X-44716Y2730D01*
X-44599Y2708D01*
X-44484Y2678D01*
X-44424Y2674D01*
X-44404Y2670D01*
X-44383Y2672D01*
X-44323Y2668D01*
X-9916Y2668D01*
X-9778Y2685D01*
G37*
G36*
X44441Y2683D02*
X44441Y2683D01*
X44560Y2690D01*
X44598Y2703D01*
X44639Y2708D01*
X44749Y2751D01*
X44862Y2788D01*
X44897Y2810D01*
X44934Y2825D01*
X45030Y2894D01*
X45131Y2958D01*
X45159Y2988D01*
X45192Y3011D01*
X45268Y3103D01*
X45349Y3190D01*
X45369Y3225D01*
X45394Y3256D01*
X45445Y3364D01*
X45503Y3468D01*
X45513Y3508D01*
X45530Y3544D01*
X45552Y3661D01*
X45582Y3776D01*
X45586Y3836D01*
X45590Y3856D01*
X45588Y3877D01*
X45592Y3937D01*
X45592Y113794D01*
X45575Y113932D01*
X45562Y114071D01*
X45555Y114090D01*
X45552Y114110D01*
X45501Y114239D01*
X45454Y114370D01*
X45443Y114387D01*
X45435Y114406D01*
X45354Y114518D01*
X45276Y114633D01*
X45260Y114647D01*
X45249Y114663D01*
X45141Y114752D01*
X45037Y114844D01*
X45019Y114853D01*
X45004Y114866D01*
X44878Y114925D01*
X44754Y114988D01*
X44734Y114993D01*
X44716Y115001D01*
X44579Y115027D01*
X44444Y115058D01*
X44423Y115057D01*
X44404Y115061D01*
X44265Y115052D01*
X44126Y115048D01*
X44106Y115043D01*
X44086Y115041D01*
X43954Y114999D01*
X43820Y114960D01*
X43803Y114950D01*
X43784Y114943D01*
X43666Y114869D01*
X43546Y114798D01*
X43525Y114780D01*
X43515Y114773D01*
X43501Y114758D01*
X43426Y114692D01*
X42111Y113377D01*
X39697Y112378D01*
X39654Y112353D01*
X39608Y112336D01*
X39517Y112274D01*
X39421Y112220D01*
X39386Y112185D01*
X39344Y112158D01*
X39272Y112075D01*
X39193Y111999D01*
X39167Y111956D01*
X39134Y111919D01*
X39084Y111821D01*
X39027Y111728D01*
X39012Y111680D01*
X38989Y111636D01*
X38965Y111529D01*
X38933Y111424D01*
X38931Y111374D01*
X38920Y111326D01*
X38923Y111216D01*
X38918Y111106D01*
X38928Y111057D01*
X38929Y111008D01*
X38960Y110902D01*
X38982Y110795D01*
X39004Y110750D01*
X39018Y110702D01*
X39073Y110608D01*
X39122Y110509D01*
X39154Y110471D01*
X39179Y110428D01*
X39286Y110307D01*
X39401Y110192D01*
X39401Y98088D01*
X37912Y96599D01*
X36440Y96599D01*
X36322Y96584D01*
X36203Y96577D01*
X36165Y96564D01*
X36124Y96559D01*
X36014Y96516D01*
X35901Y96479D01*
X35866Y96457D01*
X35829Y96442D01*
X35733Y96373D01*
X35632Y96309D01*
X35604Y96279D01*
X35571Y96256D01*
X35495Y96164D01*
X35414Y96077D01*
X35394Y96042D01*
X35369Y96011D01*
X35318Y95903D01*
X35260Y95799D01*
X35250Y95759D01*
X35233Y95723D01*
X35211Y95606D01*
X35181Y95491D01*
X35177Y95431D01*
X35173Y95411D01*
X35174Y95405D01*
X35173Y95403D01*
X35174Y95387D01*
X35171Y95330D01*
X35171Y94170D01*
X35186Y94052D01*
X35193Y93933D01*
X35206Y93895D01*
X35211Y93854D01*
X35254Y93744D01*
X35291Y93631D01*
X35313Y93596D01*
X35328Y93559D01*
X35397Y93463D01*
X35461Y93362D01*
X35491Y93334D01*
X35514Y93301D01*
X35606Y93225D01*
X35693Y93144D01*
X35728Y93124D01*
X35759Y93099D01*
X35867Y93048D01*
X35971Y92990D01*
X36011Y92980D01*
X36047Y92963D01*
X36164Y92941D01*
X36279Y92911D01*
X36339Y92907D01*
X36359Y92903D01*
X36380Y92905D01*
X36440Y92901D01*
X38912Y92901D01*
X40401Y91412D01*
X40401Y81308D01*
X38912Y79819D01*
X26808Y79819D01*
X25319Y81308D01*
X25319Y91412D01*
X27178Y93271D01*
X27238Y93349D01*
X27306Y93421D01*
X27335Y93474D01*
X27372Y93522D01*
X27412Y93613D01*
X27460Y93700D01*
X27475Y93758D01*
X27499Y93814D01*
X27514Y93912D01*
X27539Y94007D01*
X27545Y94108D01*
X27549Y94128D01*
X27547Y94140D01*
X27549Y94168D01*
X27549Y95330D01*
X27534Y95448D01*
X27527Y95567D01*
X27514Y95605D01*
X27509Y95646D01*
X27466Y95756D01*
X27429Y95869D01*
X27407Y95904D01*
X27392Y95941D01*
X27323Y96037D01*
X27259Y96138D01*
X27229Y96166D01*
X27206Y96199D01*
X27114Y96275D01*
X27027Y96356D01*
X26992Y96376D01*
X26961Y96401D01*
X26853Y96452D01*
X26749Y96510D01*
X26709Y96520D01*
X26673Y96537D01*
X26556Y96559D01*
X26441Y96589D01*
X26381Y96593D01*
X26361Y96597D01*
X26340Y96595D01*
X26280Y96599D01*
X24808Y96599D01*
X23758Y97649D01*
X23663Y97722D01*
X23574Y97801D01*
X23538Y97820D01*
X23506Y97844D01*
X23397Y97892D01*
X23291Y97946D01*
X23252Y97955D01*
X23214Y97971D01*
X23097Y97989D01*
X22981Y98015D01*
X22940Y98014D01*
X22900Y98020D01*
X22782Y98009D01*
X22663Y98006D01*
X22624Y97994D01*
X22584Y97991D01*
X22471Y97950D01*
X22357Y97917D01*
X22323Y97897D01*
X22284Y97883D01*
X22186Y97816D01*
X22083Y97756D01*
X22038Y97716D01*
X22021Y97704D01*
X22008Y97689D01*
X21963Y97649D01*
X20912Y96599D01*
X7808Y96599D01*
X6038Y98369D01*
X5944Y98442D01*
X5854Y98521D01*
X5818Y98539D01*
X5786Y98564D01*
X5677Y98611D01*
X5571Y98665D01*
X5532Y98674D01*
X5495Y98690D01*
X5377Y98709D01*
X5261Y98735D01*
X5221Y98734D01*
X5181Y98740D01*
X5062Y98729D01*
X4943Y98725D01*
X4904Y98714D01*
X4864Y98710D01*
X4752Y98670D01*
X4637Y98637D01*
X4603Y98616D01*
X4565Y98603D01*
X4466Y98536D01*
X4364Y98475D01*
X4318Y98436D01*
X4301Y98424D01*
X4288Y98409D01*
X4243Y98369D01*
X4011Y98137D01*
X1408Y97059D01*
X-1408Y97059D01*
X-4011Y98137D01*
X-5903Y100029D01*
X-5981Y100090D01*
X-6052Y100157D01*
X-6087Y100176D01*
X-6119Y100203D01*
X-6138Y100211D01*
X-6154Y100224D01*
X-6248Y100264D01*
X-6331Y100310D01*
X-6368Y100320D01*
X-6407Y100338D01*
X-6427Y100342D01*
X-6446Y100350D01*
X-6549Y100367D01*
X-6639Y100390D01*
X-6694Y100393D01*
X-6720Y100398D01*
X-6740Y100397D01*
X-6760Y100400D01*
X-6776Y100398D01*
X-6799Y100400D01*
X-6800Y100400D01*
X-6907Y100386D01*
X-7037Y100378D01*
X-7056Y100372D01*
X-7076Y100370D01*
X-7098Y100362D01*
X-7116Y100360D01*
X-7217Y100320D01*
X-7339Y100280D01*
X-7357Y100269D01*
X-7376Y100263D01*
X-7395Y100250D01*
X-7411Y100243D01*
X-7500Y100179D01*
X-7608Y100110D01*
X-7622Y100095D01*
X-7639Y100084D01*
X-7654Y100067D01*
X-7669Y100056D01*
X-7740Y99970D01*
X-7826Y99879D01*
X-7836Y99861D01*
X-7849Y99846D01*
X-7859Y99826D01*
X-7871Y99811D01*
X-7920Y99708D01*
X-7980Y99600D01*
X-7985Y99580D01*
X-7994Y99562D01*
X-7999Y99541D01*
X-8007Y99524D01*
X-8029Y99409D01*
X-8059Y99292D01*
X-8061Y99264D01*
X-8064Y99252D01*
X-8063Y99232D01*
X-8063Y99231D01*
X-8067Y99211D01*
X-8065Y99191D01*
X-8069Y99131D01*
X-8069Y97850D01*
X-10621Y95298D01*
X-16099Y95298D01*
X-18651Y97850D01*
X-18651Y109020D01*
X-18657Y109069D01*
X-18655Y109119D01*
X-18677Y109226D01*
X-18691Y109335D01*
X-18709Y109382D01*
X-18719Y109430D01*
X-18767Y109529D01*
X-18808Y109631D01*
X-18837Y109671D01*
X-18859Y109716D01*
X-18930Y109800D01*
X-18994Y109888D01*
X-19033Y109920D01*
X-19065Y109958D01*
X-19155Y110021D01*
X-19239Y110091D01*
X-19284Y110112D01*
X-19325Y110141D01*
X-19428Y110180D01*
X-19527Y110227D01*
X-19576Y110236D01*
X-19622Y110254D01*
X-19732Y110266D01*
X-19839Y110287D01*
X-19889Y110283D01*
X-19938Y110289D01*
X-20047Y110274D01*
X-20157Y110267D01*
X-20204Y110251D01*
X-20253Y110245D01*
X-20406Y110192D01*
X-21452Y109759D01*
X-24268Y109759D01*
X-25314Y110192D01*
X-25362Y110206D01*
X-25407Y110227D01*
X-25515Y110247D01*
X-25621Y110276D01*
X-25671Y110277D01*
X-25720Y110287D01*
X-25829Y110280D01*
X-25939Y110281D01*
X-25987Y110270D01*
X-26037Y110267D01*
X-26141Y110233D01*
X-26248Y110207D01*
X-26292Y110184D01*
X-26339Y110169D01*
X-26432Y110110D01*
X-26529Y110059D01*
X-26566Y110025D01*
X-26608Y109999D01*
X-26683Y109919D01*
X-26765Y109845D01*
X-26792Y109803D01*
X-26826Y109767D01*
X-26879Y109671D01*
X-26939Y109579D01*
X-26956Y109532D01*
X-26980Y109488D01*
X-27007Y109382D01*
X-27043Y109278D01*
X-27047Y109229D01*
X-27059Y109181D01*
X-27069Y109020D01*
X-27069Y97850D01*
X-27543Y97377D01*
X-27603Y97298D01*
X-27671Y97226D01*
X-27700Y97173D01*
X-27737Y97125D01*
X-27777Y97034D01*
X-27825Y96948D01*
X-27840Y96889D01*
X-27864Y96833D01*
X-27879Y96735D01*
X-27904Y96640D01*
X-27910Y96540D01*
X-27914Y96519D01*
X-27912Y96507D01*
X-27914Y96479D01*
X-27914Y95170D01*
X-27899Y95052D01*
X-27892Y94933D01*
X-27879Y94895D01*
X-27874Y94854D01*
X-27831Y94744D01*
X-27794Y94631D01*
X-27772Y94596D01*
X-27757Y94559D01*
X-27688Y94463D01*
X-27624Y94362D01*
X-27594Y94334D01*
X-27571Y94301D01*
X-27479Y94225D01*
X-27392Y94144D01*
X-27357Y94124D01*
X-27326Y94099D01*
X-27218Y94048D01*
X-27114Y93990D01*
X-27074Y93980D01*
X-27038Y93963D01*
X-26921Y93941D01*
X-26806Y93911D01*
X-26746Y93907D01*
X-26726Y93903D01*
X-26705Y93905D01*
X-26645Y93901D01*
X-24808Y93901D01*
X-23319Y92412D01*
X-23319Y85132D01*
X-23307Y85034D01*
X-23304Y84935D01*
X-23287Y84877D01*
X-23279Y84817D01*
X-23243Y84725D01*
X-23215Y84629D01*
X-23185Y84577D01*
X-23162Y84521D01*
X-23104Y84441D01*
X-23054Y84356D01*
X-22988Y84280D01*
X-22976Y84264D01*
X-22966Y84256D01*
X-22948Y84235D01*
X-20954Y82241D01*
X-20954Y50029D01*
X-20951Y50000D01*
X-20953Y49970D01*
X-20931Y49842D01*
X-20914Y49713D01*
X-20904Y49686D01*
X-20899Y49657D01*
X-20845Y49538D01*
X-20797Y49418D01*
X-20780Y49394D01*
X-20768Y49367D01*
X-20687Y49265D01*
X-20611Y49160D01*
X-20588Y49142D01*
X-20569Y49119D01*
X-20466Y49040D01*
X-20366Y48958D01*
X-20339Y48945D01*
X-20315Y48927D01*
X-20171Y48856D01*
X-18637Y48221D01*
X-15279Y44863D01*
X-13873Y41468D01*
X-13804Y41347D01*
X-13739Y41224D01*
X-13725Y41209D01*
X-13715Y41192D01*
X-13618Y41092D01*
X-13525Y40989D01*
X-13508Y40978D01*
X-13494Y40963D01*
X-13376Y40891D01*
X-13259Y40814D01*
X-13240Y40808D01*
X-13223Y40797D01*
X-13090Y40756D01*
X-12958Y40711D01*
X-12938Y40709D01*
X-12919Y40703D01*
X-12780Y40697D01*
X-12641Y40686D01*
X-12621Y40689D01*
X-12601Y40688D01*
X-12465Y40716D01*
X-12328Y40740D01*
X-12309Y40748D01*
X-12290Y40752D01*
X-12165Y40814D01*
X-12038Y40871D01*
X-12022Y40883D01*
X-12004Y40892D01*
X-11898Y40983D01*
X-11790Y41069D01*
X-11777Y41085D01*
X-11762Y41099D01*
X-11682Y41212D01*
X-11598Y41323D01*
X-11586Y41349D01*
X-11579Y41359D01*
X-11572Y41378D01*
X-11527Y41468D01*
X-10121Y44863D01*
X-6763Y48221D01*
X-2375Y50039D01*
X2375Y50039D01*
X6788Y48211D01*
X6832Y48176D01*
X6939Y48088D01*
X6958Y48079D01*
X6974Y48067D01*
X7102Y48011D01*
X7227Y47952D01*
X7247Y47948D01*
X7266Y47940D01*
X7403Y47918D01*
X7540Y47892D01*
X7560Y47893D01*
X7580Y47890D01*
X7718Y47903D01*
X7857Y47912D01*
X7876Y47918D01*
X7896Y47920D01*
X8028Y47967D01*
X8159Y48010D01*
X8176Y48021D01*
X8196Y48028D01*
X8311Y48106D01*
X8428Y48180D01*
X8442Y48195D01*
X8459Y48206D01*
X8551Y48310D01*
X8646Y48412D01*
X8656Y48429D01*
X8669Y48445D01*
X8732Y48569D01*
X8800Y48690D01*
X8805Y48710D01*
X8814Y48728D01*
X8844Y48864D01*
X8879Y48998D01*
X8881Y49026D01*
X8884Y49038D01*
X8883Y49059D01*
X8889Y49159D01*
X8889Y78550D01*
X8874Y78668D01*
X8867Y78787D01*
X8854Y78825D01*
X8849Y78866D01*
X8806Y78976D01*
X8769Y79089D01*
X8747Y79124D01*
X8732Y79161D01*
X8663Y79257D01*
X8599Y79358D01*
X8569Y79386D01*
X8546Y79419D01*
X8454Y79495D01*
X8367Y79576D01*
X8332Y79596D01*
X8301Y79621D01*
X8193Y79672D01*
X8089Y79730D01*
X8049Y79740D01*
X8013Y79757D01*
X7896Y79779D01*
X7781Y79809D01*
X7721Y79813D01*
X7701Y79817D01*
X7680Y79815D01*
X7620Y79819D01*
X6808Y79819D01*
X5319Y81308D01*
X5319Y91412D01*
X6808Y92901D01*
X18912Y92901D01*
X20401Y91412D01*
X20401Y81308D01*
X18912Y79819D01*
X17780Y79819D01*
X17662Y79804D01*
X17543Y79797D01*
X17505Y79784D01*
X17464Y79779D01*
X17354Y79736D01*
X17241Y79699D01*
X17206Y79677D01*
X17169Y79662D01*
X17073Y79593D01*
X16972Y79529D01*
X16944Y79499D01*
X16911Y79476D01*
X16835Y79384D01*
X16754Y79297D01*
X16734Y79262D01*
X16709Y79231D01*
X16658Y79123D01*
X16600Y79019D01*
X16590Y78979D01*
X16573Y78943D01*
X16551Y78826D01*
X16521Y78711D01*
X16517Y78651D01*
X16513Y78631D01*
X16515Y78610D01*
X16511Y78550D01*
X16511Y49159D01*
X16528Y49021D01*
X16541Y48882D01*
X16548Y48863D01*
X16551Y48843D01*
X16602Y48714D01*
X16649Y48583D01*
X16660Y48566D01*
X16668Y48548D01*
X16749Y48435D01*
X16827Y48320D01*
X16843Y48307D01*
X16854Y48290D01*
X16962Y48202D01*
X17066Y48110D01*
X17084Y48100D01*
X17099Y48088D01*
X17225Y48028D01*
X17349Y47965D01*
X17369Y47961D01*
X17387Y47952D01*
X17523Y47926D01*
X17659Y47895D01*
X17680Y47896D01*
X17699Y47892D01*
X17838Y47901D01*
X17977Y47905D01*
X17997Y47911D01*
X18017Y47912D01*
X18149Y47955D01*
X18283Y47994D01*
X18300Y48004D01*
X18319Y48010D01*
X18437Y48084D01*
X18557Y48155D01*
X18578Y48174D01*
X18588Y48180D01*
X18602Y48195D01*
X18627Y48217D01*
X23025Y50039D01*
X27775Y50039D01*
X32163Y48221D01*
X35521Y44863D01*
X37339Y40475D01*
X37339Y35725D01*
X35521Y31337D01*
X32163Y27979D01*
X28768Y26573D01*
X28647Y26504D01*
X28524Y26439D01*
X28509Y26425D01*
X28492Y26415D01*
X28392Y26318D01*
X28289Y26225D01*
X28278Y26208D01*
X28263Y26194D01*
X28191Y26075D01*
X28114Y25959D01*
X28108Y25940D01*
X28097Y25923D01*
X28056Y25790D01*
X28011Y25658D01*
X28009Y25638D01*
X28003Y25619D01*
X27997Y25480D01*
X27986Y25341D01*
X27989Y25321D01*
X27988Y25301D01*
X28016Y25165D01*
X28040Y25028D01*
X28048Y25009D01*
X28052Y24990D01*
X28114Y24864D01*
X28171Y24738D01*
X28183Y24722D01*
X28192Y24704D01*
X28283Y24598D01*
X28369Y24490D01*
X28385Y24477D01*
X28399Y24462D01*
X28512Y24382D01*
X28623Y24298D01*
X28649Y24286D01*
X28659Y24279D01*
X28678Y24272D01*
X28768Y24227D01*
X32163Y22821D01*
X35521Y19463D01*
X37339Y15075D01*
X37339Y10325D01*
X35521Y5937D01*
X34418Y4834D01*
X34334Y4725D01*
X34245Y4618D01*
X34236Y4599D01*
X34223Y4583D01*
X34168Y4456D01*
X34109Y4330D01*
X34105Y4310D01*
X34097Y4291D01*
X34075Y4153D01*
X34049Y4017D01*
X34050Y3997D01*
X34047Y3977D01*
X34060Y3838D01*
X34069Y3700D01*
X34075Y3681D01*
X34077Y3661D01*
X34124Y3529D01*
X34167Y3398D01*
X34178Y3380D01*
X34185Y3361D01*
X34263Y3246D01*
X34337Y3129D01*
X34352Y3115D01*
X34363Y3098D01*
X34468Y3006D01*
X34569Y2911D01*
X34586Y2901D01*
X34602Y2888D01*
X34726Y2824D01*
X34847Y2757D01*
X34867Y2752D01*
X34885Y2743D01*
X35021Y2713D01*
X35155Y2678D01*
X35183Y2676D01*
X35195Y2673D01*
X35216Y2674D01*
X35316Y2668D01*
X44323Y2668D01*
X44441Y2683D01*
G37*
G36*
X-1881Y297650D02*
X-1881Y297650D01*
X-1743Y297659D01*
X-1724Y297665D01*
X-1704Y297667D01*
X-1572Y297714D01*
X-1441Y297757D01*
X-1423Y297768D01*
X-1404Y297775D01*
X-1289Y297853D01*
X-1172Y297927D01*
X-1158Y297942D01*
X-1141Y297953D01*
X-1049Y298057D01*
X-954Y298159D01*
X-944Y298176D01*
X-931Y298192D01*
X-867Y298316D01*
X-800Y298437D01*
X-795Y298457D01*
X-786Y298475D01*
X-756Y298611D01*
X-721Y298745D01*
X-719Y298773D01*
X-716Y298785D01*
X-717Y298806D01*
X-711Y298906D01*
X-711Y303582D01*
X-723Y303680D01*
X-726Y303779D01*
X-743Y303837D01*
X-751Y303897D01*
X-787Y303989D01*
X-815Y304085D01*
X-845Y304137D01*
X-868Y304193D01*
X-926Y304273D01*
X-976Y304359D01*
X-1042Y304434D01*
X-1054Y304450D01*
X-1064Y304458D01*
X-1083Y304479D01*
X-1191Y304588D01*
X-1191Y338692D01*
X298Y340181D01*
X43102Y340181D01*
X43426Y339858D01*
X43535Y339773D01*
X43642Y339684D01*
X43661Y339675D01*
X43677Y339663D01*
X43805Y339607D01*
X43930Y339548D01*
X43950Y339544D01*
X43969Y339536D01*
X44107Y339514D01*
X44243Y339488D01*
X44263Y339490D01*
X44283Y339486D01*
X44422Y339500D01*
X44560Y339508D01*
X44579Y339514D01*
X44599Y339516D01*
X44730Y339563D01*
X44862Y339606D01*
X44880Y339617D01*
X44899Y339624D01*
X45013Y339702D01*
X45131Y339776D01*
X45145Y339791D01*
X45162Y339802D01*
X45254Y339907D01*
X45349Y340008D01*
X45359Y340026D01*
X45372Y340041D01*
X45435Y340165D01*
X45503Y340286D01*
X45508Y340306D01*
X45517Y340324D01*
X45547Y340460D01*
X45582Y340594D01*
X45584Y340622D01*
X45587Y340634D01*
X45586Y340655D01*
X45592Y340755D01*
X45592Y369443D01*
X45577Y369561D01*
X45570Y369680D01*
X45557Y369718D01*
X45552Y369759D01*
X45509Y369869D01*
X45472Y369982D01*
X45450Y370017D01*
X45435Y370054D01*
X45366Y370150D01*
X45302Y370251D01*
X45272Y370279D01*
X45249Y370312D01*
X45157Y370388D01*
X45070Y370469D01*
X45035Y370489D01*
X45004Y370514D01*
X44896Y370565D01*
X44792Y370623D01*
X44752Y370633D01*
X44716Y370650D01*
X44599Y370672D01*
X44484Y370702D01*
X44424Y370706D01*
X44404Y370710D01*
X44383Y370708D01*
X44323Y370712D01*
X-44323Y370712D01*
X-44441Y370697D01*
X-44560Y370690D01*
X-44598Y370677D01*
X-44639Y370672D01*
X-44749Y370629D01*
X-44862Y370592D01*
X-44897Y370570D01*
X-44934Y370555D01*
X-45030Y370486D01*
X-45131Y370422D01*
X-45159Y370392D01*
X-45192Y370369D01*
X-45268Y370277D01*
X-45349Y370190D01*
X-45369Y370155D01*
X-45394Y370124D01*
X-45445Y370016D01*
X-45503Y369912D01*
X-45513Y369872D01*
X-45530Y369836D01*
X-45552Y369719D01*
X-45582Y369604D01*
X-45586Y369544D01*
X-45590Y369524D01*
X-45588Y369503D01*
X-45592Y369443D01*
X-45592Y340755D01*
X-45575Y340617D01*
X-45562Y340479D01*
X-45555Y340460D01*
X-45552Y340440D01*
X-45501Y340310D01*
X-45454Y340179D01*
X-45443Y340163D01*
X-45435Y340144D01*
X-45354Y340031D01*
X-45276Y339916D01*
X-45260Y339903D01*
X-45249Y339887D01*
X-45141Y339798D01*
X-45037Y339706D01*
X-45019Y339697D01*
X-45004Y339684D01*
X-44878Y339624D01*
X-44754Y339561D01*
X-44734Y339557D01*
X-44716Y339548D01*
X-44579Y339522D01*
X-44444Y339492D01*
X-44423Y339492D01*
X-44404Y339488D01*
X-44265Y339497D01*
X-44126Y339501D01*
X-44106Y339507D01*
X-44086Y339508D01*
X-43954Y339551D01*
X-43820Y339590D01*
X-43803Y339600D01*
X-43784Y339606D01*
X-43666Y339681D01*
X-43546Y339751D01*
X-43525Y339770D01*
X-43515Y339776D01*
X-43501Y339791D01*
X-43426Y339858D01*
X-43102Y340181D01*
X-6498Y340181D01*
X-5009Y338692D01*
X-5009Y304588D01*
X-6336Y303261D01*
X-6408Y303167D01*
X-6487Y303078D01*
X-6506Y303042D01*
X-6530Y303010D01*
X-6578Y302901D01*
X-6632Y302795D01*
X-6641Y302755D01*
X-6657Y302718D01*
X-6676Y302600D01*
X-6702Y302484D01*
X-6700Y302444D01*
X-6707Y302404D01*
X-6696Y302285D01*
X-6692Y302167D01*
X-6681Y302128D01*
X-6677Y302087D01*
X-6637Y301975D01*
X-6603Y301861D01*
X-6583Y301826D01*
X-6569Y301788D01*
X-6502Y301690D01*
X-6442Y301587D01*
X-6402Y301542D01*
X-6391Y301525D01*
X-6375Y301512D01*
X-6336Y301466D01*
X-2877Y298008D01*
X-2768Y297923D01*
X-2661Y297834D01*
X-2642Y297826D01*
X-2626Y297813D01*
X-2498Y297758D01*
X-2373Y297699D01*
X-2353Y297695D01*
X-2334Y297687D01*
X-2196Y297665D01*
X-2060Y297639D01*
X-2040Y297640D01*
X-2020Y297637D01*
X-1881Y297650D01*
G37*
G36*
X44422Y123710D02*
X44422Y123710D01*
X44560Y123719D01*
X44579Y123725D01*
X44599Y123727D01*
X44731Y123774D01*
X44862Y123817D01*
X44880Y123828D01*
X44899Y123834D01*
X45014Y123912D01*
X45131Y123987D01*
X45145Y124002D01*
X45162Y124013D01*
X45254Y124117D01*
X45349Y124218D01*
X45359Y124236D01*
X45372Y124251D01*
X45436Y124376D01*
X45503Y124497D01*
X45508Y124517D01*
X45517Y124535D01*
X45547Y124670D01*
X45582Y124805D01*
X45584Y124833D01*
X45587Y124845D01*
X45586Y124865D01*
X45592Y124966D01*
X45592Y245215D01*
X45575Y245352D01*
X45562Y245491D01*
X45555Y245510D01*
X45552Y245530D01*
X45501Y245659D01*
X45454Y245791D01*
X45443Y245807D01*
X45435Y245826D01*
X45354Y245939D01*
X45276Y246054D01*
X45260Y246067D01*
X45249Y246083D01*
X45141Y246172D01*
X45037Y246264D01*
X45019Y246273D01*
X45004Y246286D01*
X44878Y246346D01*
X44754Y246409D01*
X44734Y246413D01*
X44716Y246422D01*
X44580Y246448D01*
X44444Y246478D01*
X44423Y246478D01*
X44404Y246482D01*
X44265Y246473D01*
X44126Y246469D01*
X44106Y246463D01*
X44086Y246462D01*
X43954Y246419D01*
X43820Y246380D01*
X43803Y246370D01*
X43784Y246364D01*
X43666Y246289D01*
X43546Y246219D01*
X43525Y246200D01*
X43515Y246194D01*
X43501Y246179D01*
X43426Y246112D01*
X41612Y244299D01*
X29508Y244299D01*
X28838Y244969D01*
X28744Y245042D01*
X28654Y245121D01*
X28618Y245140D01*
X28586Y245164D01*
X28477Y245212D01*
X28371Y245266D01*
X28332Y245275D01*
X28294Y245291D01*
X28177Y245309D01*
X28061Y245335D01*
X28020Y245334D01*
X27980Y245340D01*
X27862Y245329D01*
X27743Y245326D01*
X27704Y245314D01*
X27664Y245311D01*
X27551Y245270D01*
X27437Y245237D01*
X27403Y245217D01*
X27364Y245203D01*
X27266Y245136D01*
X27163Y245076D01*
X27118Y245036D01*
X27101Y245024D01*
X27088Y245009D01*
X27043Y244969D01*
X26372Y244299D01*
X13970Y244299D01*
X13852Y244284D01*
X13733Y244277D01*
X13695Y244264D01*
X13654Y244259D01*
X13544Y244216D01*
X13431Y244179D01*
X13396Y244157D01*
X13359Y244142D01*
X13263Y244073D01*
X13162Y244009D01*
X13134Y243979D01*
X13101Y243956D01*
X13025Y243864D01*
X12944Y243777D01*
X12924Y243742D01*
X12899Y243711D01*
X12848Y243603D01*
X12790Y243499D01*
X12780Y243459D01*
X12763Y243423D01*
X12741Y243306D01*
X12711Y243191D01*
X12707Y243131D01*
X12703Y243111D01*
X12705Y243090D01*
X12701Y243030D01*
X12701Y224710D01*
X12716Y224592D01*
X12723Y224473D01*
X12736Y224435D01*
X12741Y224394D01*
X12784Y224284D01*
X12821Y224171D01*
X12843Y224136D01*
X12858Y224099D01*
X12927Y224003D01*
X12991Y223902D01*
X13021Y223874D01*
X13044Y223841D01*
X13136Y223765D01*
X13223Y223684D01*
X13258Y223664D01*
X13289Y223639D01*
X13397Y223588D01*
X13501Y223530D01*
X13541Y223520D01*
X13577Y223503D01*
X13694Y223481D01*
X13809Y223451D01*
X13869Y223447D01*
X13889Y223443D01*
X13910Y223445D01*
X13970Y223441D01*
X20912Y223441D01*
X22401Y221952D01*
X22401Y210850D01*
X22404Y210821D01*
X22402Y210792D01*
X22424Y210663D01*
X22441Y210535D01*
X22451Y210507D01*
X22456Y210478D01*
X22510Y210360D01*
X22558Y210239D01*
X22575Y210215D01*
X22587Y210188D01*
X22668Y210087D01*
X22744Y209982D01*
X22767Y209963D01*
X22786Y209940D01*
X22889Y209862D01*
X22989Y209779D01*
X23016Y209766D01*
X23040Y209749D01*
X23184Y209678D01*
X24331Y209203D01*
X26323Y207211D01*
X27401Y204608D01*
X27401Y201792D01*
X26574Y199796D01*
X26561Y199748D01*
X26540Y199703D01*
X26519Y199595D01*
X26490Y199489D01*
X26489Y199439D01*
X26480Y199390D01*
X26487Y199281D01*
X26485Y199171D01*
X26497Y199123D01*
X26500Y199073D01*
X26534Y198969D01*
X26559Y198862D01*
X26582Y198818D01*
X26598Y198771D01*
X26657Y198678D01*
X26708Y198581D01*
X26741Y198544D01*
X26768Y198502D01*
X26848Y198427D01*
X26922Y198345D01*
X26963Y198318D01*
X27000Y198284D01*
X27096Y198231D01*
X27188Y198171D01*
X27235Y198154D01*
X27278Y198130D01*
X27384Y198103D01*
X27488Y198067D01*
X27538Y198063D01*
X27586Y198051D01*
X27747Y198041D01*
X37912Y198041D01*
X39401Y196552D01*
X39401Y184448D01*
X38306Y183353D01*
X38233Y183258D01*
X38154Y183169D01*
X38135Y183133D01*
X38111Y183101D01*
X38063Y182992D01*
X38009Y182886D01*
X38000Y182847D01*
X37984Y182809D01*
X37966Y182692D01*
X37940Y182576D01*
X37941Y182535D01*
X37935Y182495D01*
X37946Y182377D01*
X37949Y182258D01*
X37961Y182219D01*
X37964Y182179D01*
X38005Y182066D01*
X38038Y181952D01*
X38058Y181918D01*
X38072Y181879D01*
X38139Y181781D01*
X38199Y181678D01*
X38239Y181633D01*
X38251Y181616D01*
X38266Y181603D01*
X38306Y181558D01*
X39901Y179962D01*
X39901Y171832D01*
X39913Y171734D01*
X39916Y171635D01*
X39933Y171577D01*
X39941Y171517D01*
X39977Y171425D01*
X40005Y171329D01*
X40006Y171327D01*
X40006Y158494D01*
X40018Y158395D01*
X40021Y158296D01*
X40038Y158238D01*
X40046Y158178D01*
X40082Y158086D01*
X40110Y157991D01*
X40140Y157939D01*
X40163Y157882D01*
X40221Y157802D01*
X40271Y157717D01*
X40337Y157642D01*
X40349Y157625D01*
X40359Y157617D01*
X40377Y157596D01*
X41563Y156411D01*
X42641Y153808D01*
X42641Y150992D01*
X41563Y148389D01*
X39571Y146397D01*
X36968Y145319D01*
X34152Y145319D01*
X32156Y146146D01*
X32108Y146159D01*
X32063Y146180D01*
X31955Y146201D01*
X31849Y146230D01*
X31799Y146231D01*
X31750Y146240D01*
X31641Y146233D01*
X31531Y146235D01*
X31483Y146223D01*
X31433Y146220D01*
X31329Y146186D01*
X31222Y146161D01*
X31178Y146138D01*
X31131Y146122D01*
X31038Y146063D01*
X30941Y146012D01*
X30904Y145979D01*
X30862Y145952D01*
X30787Y145872D01*
X30705Y145798D01*
X30678Y145757D01*
X30644Y145720D01*
X30591Y145624D01*
X30531Y145532D01*
X30514Y145485D01*
X30490Y145442D01*
X30463Y145336D01*
X30427Y145232D01*
X30423Y145182D01*
X30423Y145180D01*
X29571Y144327D01*
X29486Y144218D01*
X29397Y144111D01*
X29388Y144092D01*
X29376Y144076D01*
X29320Y143949D01*
X29261Y143823D01*
X29257Y143803D01*
X29249Y143784D01*
X29227Y143646D01*
X29201Y143510D01*
X29203Y143490D01*
X29199Y143470D01*
X29213Y143331D01*
X29221Y143193D01*
X29227Y143174D01*
X29229Y143154D01*
X29276Y143022D01*
X29319Y142891D01*
X29330Y142873D01*
X29337Y142854D01*
X29415Y142739D01*
X29489Y142622D01*
X29504Y142608D01*
X29515Y142591D01*
X29620Y142499D01*
X29721Y142404D01*
X29739Y142394D01*
X29754Y142381D01*
X29878Y142318D01*
X29999Y142250D01*
X30019Y142245D01*
X30037Y142236D01*
X30173Y142206D01*
X30307Y142171D01*
X30335Y142169D01*
X30347Y142166D01*
X30368Y142167D01*
X30468Y142161D01*
X37912Y142161D01*
X39401Y140672D01*
X39401Y128568D01*
X39286Y128453D01*
X39255Y128413D01*
X39218Y128380D01*
X39158Y128288D01*
X39091Y128201D01*
X39071Y128156D01*
X39044Y128114D01*
X39008Y128010D01*
X38964Y127909D01*
X38957Y127860D01*
X38941Y127813D01*
X38932Y127704D01*
X38915Y127595D01*
X38919Y127546D01*
X38915Y127496D01*
X38934Y127388D01*
X38944Y127279D01*
X38961Y127232D01*
X38970Y127183D01*
X39015Y127083D01*
X39052Y126979D01*
X39080Y126938D01*
X39100Y126893D01*
X39169Y126807D01*
X39231Y126716D01*
X39268Y126683D01*
X39299Y126645D01*
X39387Y126578D01*
X39469Y126506D01*
X39513Y126483D01*
X39553Y126453D01*
X39697Y126382D01*
X42111Y125383D01*
X43426Y124068D01*
X43535Y123983D01*
X43642Y123894D01*
X43661Y123886D01*
X43677Y123873D01*
X43804Y123818D01*
X43930Y123759D01*
X43950Y123755D01*
X43969Y123747D01*
X44107Y123725D01*
X44243Y123699D01*
X44263Y123700D01*
X44283Y123697D01*
X44422Y123710D01*
G37*
D10*
X-35560Y235340D03*
X-35560Y252340D03*
X-22860Y270900D03*
X-22860Y287900D03*
X-15240Y235340D03*
X-15240Y252340D03*
X0Y235340D03*
X0Y252340D03*
X35560Y235340D03*
X35560Y252340D03*
X20320Y235340D03*
X20320Y252340D03*
D11*
X31360Y215900D03*
X14360Y215900D03*
X14360Y190500D03*
X31360Y190500D03*
X-31360Y215900D03*
X-14360Y215900D03*
X31360Y134620D03*
X14360Y134620D03*
X-31360Y152400D03*
X-14360Y152400D03*
X-31360Y86360D03*
X-14360Y86360D03*
X31360Y104140D03*
X14360Y104140D03*
D12*
X32860Y86360D03*
X12860Y86360D03*
D13*
X22860Y152560D03*
X13360Y172560D03*
X32360Y172560D03*
X-22860Y170340D03*
X-32360Y190340D03*
X-13360Y190340D03*
D14*
X-40300Y321640D03*
X-34100Y321640D03*
X-27900Y321640D03*
X-21700Y321640D03*
X-15500Y321640D03*
X-9300Y321640D03*
X-3100Y321640D03*
X3100Y321640D03*
X9300Y321640D03*
X15500Y321640D03*
X21700Y321640D03*
X27900Y321640D03*
X34100Y321640D03*
X40300Y321640D03*
D15*
X-31425Y99654D02*
X-33295Y99654D01*
X-33295Y108024D01*
X-31425Y108024D01*
X-31425Y99654D01*
X-31425Y103102D02*
X-33295Y103102D01*
X-33295Y106550D02*
X-31425Y106550D01*
X-23795Y99654D02*
X-21925Y99654D01*
X-23795Y99654D02*
X-23795Y108024D01*
X-21925Y108024D01*
X-21925Y99654D01*
X-21925Y103102D02*
X-23795Y103102D01*
X-23795Y106550D02*
X-21925Y106550D01*
X-14295Y99654D02*
X-12425Y99654D01*
X-14295Y99654D02*
X-14295Y108024D01*
X-12425Y108024D01*
X-12425Y99654D01*
X-12425Y103102D02*
X-14295Y103102D01*
X-14295Y106550D02*
X-12425Y106550D01*
X-12425Y125656D02*
X-14295Y125656D01*
X-14295Y134026D01*
X-12425Y134026D01*
X-12425Y125656D01*
X-12425Y129104D02*
X-14295Y129104D01*
X-14295Y132552D02*
X-12425Y132552D01*
X-31425Y125656D02*
X-33295Y125656D01*
X-33295Y134026D01*
X-31425Y134026D01*
X-31425Y125656D01*
X-31425Y129104D02*
X-33295Y129104D01*
X-33295Y132552D02*
X-31425Y132552D01*
D16*
X-25400Y12700D03*
X-25400Y38100D03*
X0Y12700D03*
X0Y38100D03*
X25400Y12700D03*
X25400Y38100D03*
D17*
X-40300Y257080D02*
X-40300Y321640D01*
X-40300Y257080D02*
X-35560Y252340D01*
X-34100Y266050D02*
X-34100Y321640D01*
X-34100Y266050D02*
X-27258Y259208D01*
X-27258Y243642D01*
X-35560Y235340D01*
X-27900Y300560D02*
X-27900Y321640D01*
X-22860Y295520D02*
X-22860Y287900D01*
X-22860Y295520D02*
X-27900Y300560D01*
X-21590Y321530D02*
X-21700Y321640D01*
X-21590Y321530D02*
X-21590Y303070D01*
X-13288Y280472D02*
X-22860Y270900D01*
X-13288Y280472D02*
X-13288Y294768D01*
X-21590Y303070D01*
D18*
X38100Y203200D03*
X0Y203200D03*
X0Y347980D03*
X10160Y363220D03*
X-10160Y363220D03*
X20320Y347980D03*
X30480Y363220D03*
X40640Y347980D03*
X-20320Y347980D03*
X-40640Y347980D03*
X-30480Y363220D03*
X-40640Y167640D03*
X40640Y50800D03*
X-15240Y71120D03*
X-40640Y50800D03*
X-15240Y58420D03*
X-40640Y119380D03*
D17*
X34100Y298416D02*
X34100Y321640D01*
X34100Y298416D02*
X35274Y297242D01*
X35274Y274914D01*
X20320Y259960D02*
X20320Y252340D01*
X20320Y259960D02*
X35274Y274914D01*
X27900Y298150D02*
X27900Y321640D01*
X27900Y298150D02*
X30702Y295348D01*
X30702Y278352D01*
X8890Y256540D01*
X8890Y221370D02*
X14360Y215900D01*
X8890Y221370D02*
X8890Y256540D01*
X40300Y271050D02*
X40300Y321640D01*
X35560Y266310D02*
X35560Y252340D01*
X35560Y266310D02*
X40300Y271050D01*
D18*
X7620Y269240D03*
D17*
X9300Y288360D02*
X9300Y321640D01*
X7620Y286680D02*
X7620Y269240D01*
X7620Y286680D02*
X9300Y288360D01*
X31360Y104140D02*
X31360Y87860D01*
X32860Y86360D01*
X31360Y104140D02*
X31360Y112640D01*
X38100Y119380D01*
D18*
X38100Y119380D03*
X-5080Y279400D03*
D19*
X-15500Y304344D02*
X-15500Y321640D01*
X-5080Y293924D02*
X-5080Y279400D01*
X-5080Y293924D02*
X-15500Y304344D01*
X-5080Y279400D02*
X-10160Y274320D01*
X-10160Y257420D01*
X-15240Y252340D01*
D17*
X-14360Y215900D02*
X-14360Y191340D01*
X-13360Y190340D01*
X31360Y190500D02*
X31360Y173560D01*
X32360Y172560D01*
D18*
X-22860Y139700D03*
D19*
X-32360Y130200D01*
X-32360Y129841D01*
X-5080Y139700D02*
X0Y134620D01*
X-5080Y139700D02*
X-22860Y139700D01*
X0Y104140D02*
X14360Y104140D01*
X-10980Y187960D02*
X-13360Y190340D01*
X-10980Y187960D02*
X0Y187960D01*
D18*
X0Y187960D03*
D19*
X32360Y172560D02*
X35560Y169360D01*
X35560Y152400D01*
D18*
X35560Y152400D03*
D19*
X0Y134620D02*
X0Y104140D01*
D18*
X0Y104140D03*
D17*
X31360Y134620D02*
X22860Y143120D01*
X22860Y152560D01*
X31360Y134620D02*
X25010Y128270D01*
X25010Y124070D01*
X20320Y119380D01*
D18*
X20320Y119380D03*
D17*
X-22860Y160900D02*
X-31360Y152400D01*
X-22860Y160900D02*
X-22860Y170340D01*
X-22700Y170180D01*
X-5080Y170180D01*
X0Y175260D01*
D18*
X0Y175260D03*
D17*
X12700Y86200D02*
X12700Y25400D01*
X12700Y86200D02*
X12860Y86360D01*
X12700Y25400D02*
X0Y12700D01*
D18*
X22860Y292100D03*
D17*
X21700Y293260D02*
X21700Y321640D01*
X21700Y293260D02*
X22860Y292100D01*
X14360Y190500D02*
X14360Y173560D01*
X13360Y172560D01*
D18*
X20320Y203200D03*
D17*
X20320Y196460D02*
X14360Y190500D01*
X20320Y196460D02*
X20320Y203200D01*
D18*
X17780Y279400D03*
D17*
X15500Y295830D02*
X15500Y321640D01*
X15500Y295830D02*
X15018Y295348D01*
X15018Y288852D01*
X17780Y286090D01*
X17780Y279400D01*
X-31360Y215900D02*
X-31360Y191340D01*
X-32360Y190340D01*
D18*
X-22860Y203200D03*
D17*
X-31360Y203200D01*
X-31360Y215900D01*
D19*
X-32360Y103839D02*
X-32360Y87360D01*
X-31360Y86360D01*
X-25400Y80400D02*
X-25400Y38100D01*
X-25400Y80400D02*
X-31360Y86360D01*
X-32360Y103839D02*
X-32360Y112420D01*
X-27940Y116840D01*
X-22860Y116840D01*
X-17780Y116840D01*
X-13360Y112420D02*
X-13360Y103839D01*
X-13360Y112420D02*
X-17780Y116840D01*
X14360Y134620D02*
X0Y148980D01*
X0Y160020D01*
X-7620Y160020D02*
X-14360Y153280D01*
X-14360Y152400D01*
X-7620Y160020D02*
X0Y160020D01*
D18*
X0Y160020D03*
X-22860Y116840D03*
D17*
X-222Y252562D02*
X-222Y272488D01*
X-222Y252562D02*
X0Y252340D01*
X3100Y287356D02*
X3100Y321640D01*
X3100Y287356D02*
X2826Y287082D01*
X2826Y275536D01*
X-222Y272488D01*
M02*
