G04 EAGLE Gerber RS-274X export*
G75*
%MOMM*%
%FSLAX34Y34*%
%LPD*%
%INGTO*%
%IPPOS*%
%AMOC8*
5,1,8,0,0,1.08239X$1,22.5*%
G01*
%ADD10C,0.076200*%
%ADD11C,0.203200*%
%ADD12C,0.127000*%
%ADD13C,0.152400*%
%ADD14C,0.254000*%


D10*
X-40078Y74809D02*
X-40078Y69894D01*
X-37620Y67437D01*
X-35163Y69894D01*
X-35163Y74809D01*
X-32594Y67437D02*
X-30136Y67437D01*
X-31365Y67437D02*
X-31365Y74809D01*
X-32594Y74809D02*
X-30136Y74809D01*
X-27604Y74809D02*
X-27604Y67437D01*
X-22689Y67437D02*
X-27604Y74809D01*
X-22689Y74809D02*
X-22689Y67437D01*
X-12716Y73581D02*
X-11488Y74809D01*
X-9030Y74809D01*
X-7801Y73581D01*
X-7801Y72352D01*
X-9030Y71123D01*
X-10259Y71123D01*
X-9030Y71123D02*
X-7801Y69894D01*
X-7801Y68666D01*
X-9030Y67437D01*
X-11488Y67437D01*
X-12716Y68666D01*
X-5232Y68666D02*
X-5232Y67437D01*
X-5232Y68666D02*
X-4003Y68666D01*
X-4003Y67437D01*
X-5232Y67437D01*
X-1490Y73581D02*
X-261Y74809D01*
X2196Y74809D01*
X3425Y73581D01*
X3425Y72352D01*
X2196Y71123D01*
X967Y71123D01*
X2196Y71123D02*
X3425Y69894D01*
X3425Y68666D01*
X2196Y67437D01*
X-261Y67437D01*
X-1490Y68666D01*
X5994Y69894D02*
X5994Y74809D01*
X5994Y69894D02*
X8452Y67437D01*
X10909Y69894D01*
X10909Y74809D01*
X-36410Y60881D02*
X-37639Y62109D01*
X-40097Y62109D01*
X-41325Y60881D01*
X-41325Y55966D01*
X-40097Y54737D01*
X-37639Y54737D01*
X-36410Y55966D01*
X-36410Y58423D01*
X-38868Y58423D01*
X-33841Y54737D02*
X-33841Y62109D01*
X-28926Y54737D01*
X-28926Y62109D01*
X-26357Y62109D02*
X-26357Y54737D01*
X-22671Y54737D01*
X-21442Y55966D01*
X-21442Y60881D01*
X-22671Y62109D01*
X-26357Y62109D01*
X-10845Y62109D02*
X-10845Y54737D01*
X-10845Y62109D02*
X-7159Y62109D01*
X-5930Y60881D01*
X-5930Y58423D01*
X-7159Y57194D01*
X-10845Y57194D01*
X-8388Y57194D02*
X-5930Y54737D01*
X325Y62109D02*
X1554Y60881D01*
X325Y62109D02*
X-2132Y62109D01*
X-3361Y60881D01*
X-3361Y59652D01*
X-2132Y58423D01*
X325Y58423D01*
X1554Y57194D01*
X1554Y55966D01*
X325Y54737D01*
X-2132Y54737D01*
X-3361Y55966D01*
X6581Y54737D02*
X6581Y62109D01*
X9038Y62109D02*
X4123Y62109D01*
X25861Y62109D02*
X27090Y60881D01*
X25861Y62109D02*
X23403Y62109D01*
X22175Y60881D01*
X22175Y59652D01*
X23403Y58423D01*
X25861Y58423D01*
X27090Y57194D01*
X27090Y55966D01*
X25861Y54737D01*
X23403Y54737D01*
X22175Y55966D01*
X33345Y62109D02*
X34574Y60881D01*
X33345Y62109D02*
X30888Y62109D01*
X29659Y60881D01*
X29659Y55966D01*
X30888Y54737D01*
X33345Y54737D01*
X34574Y55966D01*
X37143Y54737D02*
X37143Y62109D01*
X37143Y54737D02*
X42058Y54737D01*
X27090Y73581D02*
X25861Y74809D01*
X23403Y74809D01*
X22175Y73581D01*
X22175Y72352D01*
X23403Y71123D01*
X25861Y71123D01*
X27090Y69894D01*
X27090Y68666D01*
X25861Y67437D01*
X23403Y67437D01*
X22175Y68666D01*
X29659Y67437D02*
X29659Y74809D01*
X29659Y67437D02*
X33345Y67437D01*
X34574Y68666D01*
X34574Y73581D01*
X33345Y74809D01*
X29659Y74809D01*
X37143Y72352D02*
X37143Y67437D01*
X37143Y72352D02*
X39601Y74809D01*
X42058Y72352D01*
X42058Y67437D01*
X42058Y71123D02*
X37143Y71123D01*
X-37719Y364941D02*
X-37719Y369856D01*
X-37719Y364941D02*
X-35262Y362483D01*
X-32804Y364941D01*
X-32804Y369856D01*
X-30235Y362483D02*
X-27777Y362483D01*
X-29006Y362483D02*
X-29006Y369856D01*
X-30235Y369856D02*
X-27777Y369856D01*
X-25245Y369856D02*
X-25245Y362483D01*
X-20331Y362483D02*
X-25245Y369856D01*
X-20331Y369856D02*
X-20331Y362483D01*
X-17761Y367398D02*
X-16533Y367398D01*
X-16533Y366170D01*
X-17761Y366170D01*
X-17761Y367398D01*
X-17761Y363712D02*
X-16533Y363712D01*
X-16533Y362483D01*
X-17761Y362483D01*
X-17761Y363712D01*
X-6535Y368627D02*
X-5306Y369856D01*
X-2849Y369856D01*
X-1620Y368627D01*
X-1620Y367398D01*
X-2849Y366170D01*
X-4078Y366170D01*
X-2849Y366170D02*
X-1620Y364941D01*
X-1620Y363712D01*
X-2849Y362483D01*
X-5306Y362483D01*
X-6535Y363712D01*
X949Y363712D02*
X949Y362483D01*
X949Y363712D02*
X2178Y363712D01*
X2178Y362483D01*
X949Y362483D01*
X4691Y368627D02*
X5920Y369856D01*
X8377Y369856D01*
X9606Y368627D01*
X9606Y367398D01*
X8377Y366170D01*
X7149Y366170D01*
X8377Y366170D02*
X9606Y364941D01*
X9606Y363712D01*
X8377Y362483D01*
X5920Y362483D01*
X4691Y363712D01*
X12175Y366170D02*
X17090Y366170D01*
X19660Y369856D02*
X24574Y369856D01*
X19660Y369856D02*
X19660Y366170D01*
X22117Y367398D01*
X23346Y367398D01*
X24574Y366170D01*
X24574Y363712D01*
X23346Y362483D01*
X20888Y362483D01*
X19660Y363712D01*
X27144Y364941D02*
X27144Y369856D01*
X27144Y364941D02*
X29601Y362483D01*
X32059Y364941D01*
X32059Y369856D01*
X-35262Y351917D02*
X-37719Y351917D01*
X-36490Y351917D02*
X-36490Y359289D01*
X-35262Y359289D02*
X-37719Y359289D01*
X-31501Y359289D02*
X-29043Y359289D01*
X-31501Y359289D02*
X-32730Y358061D01*
X-32730Y353146D01*
X-31501Y351917D01*
X-29043Y351917D01*
X-27815Y353146D01*
X-27815Y358061D01*
X-29043Y359289D01*
X-25245Y356832D02*
X-24017Y356832D01*
X-24017Y355603D01*
X-25245Y355603D01*
X-25245Y356832D01*
X-25245Y353146D02*
X-24017Y353146D01*
X-24017Y351917D01*
X-25245Y351917D01*
X-25245Y353146D01*
X-14019Y358061D02*
X-12791Y359289D01*
X-10333Y359289D01*
X-9104Y358061D01*
X-9104Y356832D01*
X-10333Y355603D01*
X-11562Y355603D01*
X-10333Y355603D02*
X-9104Y354374D01*
X-9104Y353146D01*
X-10333Y351917D01*
X-12791Y351917D01*
X-14019Y353146D01*
X-6535Y353146D02*
X-6535Y351917D01*
X-6535Y353146D02*
X-5306Y353146D01*
X-5306Y351917D01*
X-6535Y351917D01*
X-2793Y358061D02*
X-1564Y359289D01*
X893Y359289D01*
X2122Y358061D01*
X2122Y356832D01*
X893Y355603D01*
X-336Y355603D01*
X893Y355603D02*
X2122Y354374D01*
X2122Y353146D01*
X893Y351917D01*
X-1564Y351917D01*
X-2793Y353146D01*
X4691Y355603D02*
X9606Y355603D01*
X12175Y359289D02*
X17090Y359289D01*
X12175Y359289D02*
X12175Y355603D01*
X14633Y356832D01*
X15861Y356832D01*
X17090Y355603D01*
X17090Y353146D01*
X15861Y351917D01*
X13404Y351917D01*
X12175Y353146D01*
X19660Y354374D02*
X19660Y359289D01*
X19660Y354374D02*
X22117Y351917D01*
X24574Y354374D01*
X24574Y359289D01*
X-32804Y341351D02*
X-37719Y341351D01*
X-32804Y346265D01*
X-32804Y347494D01*
X-34033Y348723D01*
X-36490Y348723D01*
X-37719Y347494D01*
X-30235Y347494D02*
X-30235Y342579D01*
X-30235Y347494D02*
X-29006Y348723D01*
X-26549Y348723D01*
X-25320Y347494D01*
X-25320Y342579D01*
X-26549Y341351D01*
X-29006Y341351D01*
X-30235Y342579D01*
X-25320Y347494D01*
X-22751Y341351D02*
X-17836Y341351D01*
X-17836Y346265D02*
X-22751Y341351D01*
X-17836Y346265D02*
X-17836Y347494D01*
X-19065Y348723D01*
X-21522Y348723D01*
X-22751Y347494D01*
X-15267Y347494D02*
X-15267Y342579D01*
X-15267Y347494D02*
X-14038Y348723D01*
X-11580Y348723D01*
X-10352Y347494D01*
X-10352Y342579D01*
X-11580Y341351D01*
X-14038Y341351D01*
X-15267Y342579D01*
X-10352Y347494D01*
X-7782Y341351D02*
X-2868Y348723D01*
X-298Y346265D02*
X2159Y348723D01*
X2159Y341351D01*
X-298Y341351D02*
X4617Y341351D01*
X7186Y346265D02*
X9643Y348723D01*
X9643Y341351D01*
X7186Y341351D02*
X12101Y341351D01*
X14670Y341351D02*
X19585Y348723D01*
X22154Y347494D02*
X22154Y342579D01*
X22154Y347494D02*
X23383Y348723D01*
X25840Y348723D01*
X27069Y347494D01*
X27069Y342579D01*
X25840Y341351D01*
X23383Y341351D01*
X22154Y342579D01*
X27069Y347494D01*
X29638Y346265D02*
X32096Y348723D01*
X32096Y341351D01*
X34553Y341351D02*
X29638Y341351D01*
D11*
X34290Y280670D02*
X1270Y287020D01*
X13970Y274828D02*
X34290Y280670D01*
X13970Y274828D02*
X13208Y283210D01*
X4064Y274066D01*
X3302Y284226D01*
X12446Y275336D01*
X1270Y270510D01*
X-42560Y259840D02*
X-42560Y227840D01*
X-42560Y259840D02*
X-28560Y259840D01*
X-28560Y227840D01*
X-42560Y227840D01*
X-29860Y263400D02*
X-29860Y295400D01*
X-15860Y295400D01*
X-15860Y263400D01*
X-29860Y263400D01*
X-22240Y259840D02*
X-22240Y227840D01*
X-22240Y259840D02*
X-8240Y259840D01*
X-8240Y227840D01*
X-22240Y227840D01*
X-7000Y227840D02*
X-7000Y259840D01*
X7000Y259840D01*
X7000Y227840D01*
X-7000Y227840D01*
X28560Y227840D02*
X28560Y259840D01*
X42560Y259840D01*
X42560Y227840D01*
X28560Y227840D01*
X13320Y227840D02*
X13320Y259840D01*
X27320Y259840D01*
X27320Y227840D01*
X13320Y227840D01*
X6860Y208900D02*
X38860Y208900D01*
X6860Y208900D02*
X6860Y222900D01*
X38860Y222900D01*
X38860Y208900D01*
X38860Y197500D02*
X6860Y197500D01*
X38860Y197500D02*
X38860Y183500D01*
X6860Y183500D01*
X6860Y197500D01*
X-6860Y222900D02*
X-38860Y222900D01*
X-6860Y222900D02*
X-6860Y208900D01*
X-38860Y208900D01*
X-38860Y222900D01*
X6860Y127620D02*
X38860Y127620D01*
X6860Y127620D02*
X6860Y141620D01*
X38860Y141620D01*
X38860Y127620D01*
X-6860Y159400D02*
X-38860Y159400D01*
X-6860Y159400D02*
X-6860Y145400D01*
X-38860Y145400D01*
X-38860Y159400D01*
X-38860Y93360D02*
X-6860Y93360D01*
X-6860Y79360D01*
X-38860Y79360D01*
X-38860Y93360D01*
X6860Y97140D02*
X38860Y97140D01*
X6860Y97140D02*
X6860Y111140D01*
X38860Y111140D01*
X38860Y97140D01*
D12*
X31360Y79860D02*
X14360Y79860D01*
X14360Y92860D01*
X31360Y92860D01*
X31360Y79860D01*
X18860Y80360D02*
X18860Y92360D01*
X19860Y92360D01*
X19860Y80360D01*
D13*
X38584Y155956D02*
X38584Y169084D01*
X38584Y155956D02*
X27996Y155956D01*
X7136Y155956D02*
X7136Y169084D01*
X7136Y155956D02*
X17224Y155956D01*
X18636Y169164D02*
X27224Y169164D01*
X-7136Y173736D02*
X-7136Y186864D01*
X-7136Y173736D02*
X-17724Y173736D01*
X-38584Y173736D02*
X-38584Y186864D01*
X-38584Y173736D02*
X-28496Y173736D01*
X-27084Y186944D02*
X-18496Y186944D01*
D14*
X-38862Y106680D03*
D11*
X-10160Y112546D02*
X-10160Y121134D01*
X-35560Y121134D02*
X-35560Y112546D01*
X-25544Y123928D02*
X-20176Y123928D01*
X-38100Y6350D02*
X-31750Y0D01*
X-19050Y0D02*
X-12700Y6350D01*
X-6350Y0D01*
X6350Y0D02*
X12700Y6350D01*
X19050Y0D01*
X31750Y0D02*
X38100Y6350D01*
X-38100Y6350D02*
X-38100Y44450D01*
X-31750Y50800D01*
X-19050Y50800D01*
X-12700Y44450D01*
X-6350Y50800D01*
X6350Y50800D01*
X12700Y44450D01*
X19050Y50800D01*
X31750Y50800D01*
X38100Y44450D01*
X-12700Y44450D02*
X-12700Y6350D01*
X12700Y6350D02*
X12700Y44450D01*
X38100Y44450D02*
X38100Y6350D01*
X31750Y0D02*
X19050Y0D01*
X6350Y0D02*
X-6350Y0D01*
X-19050Y0D02*
X-31750Y0D01*
X-31750Y-3350D02*
X-19050Y-3350D01*
M02*
