G04 EAGLE Gerber RS-274X export*
G75*
%MOMM*%
%FSLAX34Y34*%
%LPD*%
%INGTS*%
%IPPOS*%
%AMOC8*
5,1,8,0,0,1.08239X$1,22.5*%
G01*
%ADD10R,1.152400X1.252400*%
%ADD11R,1.252400X1.152400*%
%ADD12R,1.152400X0.952400*%
%ADD13R,1.152400X1.422400*%
%ADD14R,0.502400X3.352400*%
%ADD15C,0.512750*%
%ADD16C,2.032000*%


D10*
X-35560Y235340D03*
X-35560Y252340D03*
X-22860Y270900D03*
X-22860Y287900D03*
X-15240Y235340D03*
X-15240Y252340D03*
X0Y235340D03*
X0Y252340D03*
X35560Y235340D03*
X35560Y252340D03*
X20320Y235340D03*
X20320Y252340D03*
D11*
X31360Y215900D03*
X14360Y215900D03*
X14360Y190500D03*
X31360Y190500D03*
X-31360Y215900D03*
X-14360Y215900D03*
X31360Y134620D03*
X14360Y134620D03*
X-31360Y152400D03*
X-14360Y152400D03*
X-31360Y86360D03*
X-14360Y86360D03*
X31360Y104140D03*
X14360Y104140D03*
D12*
X32860Y86360D03*
X12860Y86360D03*
D13*
X22860Y152560D03*
X13360Y172560D03*
X32360Y172560D03*
X-22860Y170340D03*
X-32360Y190340D03*
X-13360Y190340D03*
D14*
X-40300Y321640D03*
X-34100Y321640D03*
X-27900Y321640D03*
X-21700Y321640D03*
X-15500Y321640D03*
X-9300Y321640D03*
X-3100Y321640D03*
X3100Y321640D03*
X9300Y321640D03*
X15500Y321640D03*
X21700Y321640D03*
X27900Y321640D03*
X34100Y321640D03*
X40300Y321640D03*
D15*
X-31412Y99641D02*
X-33308Y99641D01*
X-33308Y108037D01*
X-31412Y108037D01*
X-31412Y99641D01*
X-31412Y104513D02*
X-33308Y104513D01*
X-23808Y99641D02*
X-21912Y99641D01*
X-23808Y99641D02*
X-23808Y108037D01*
X-21912Y108037D01*
X-21912Y99641D01*
X-21912Y104513D02*
X-23808Y104513D01*
X-14308Y99641D02*
X-12412Y99641D01*
X-14308Y99641D02*
X-14308Y108037D01*
X-12412Y108037D01*
X-12412Y99641D01*
X-12412Y104513D02*
X-14308Y104513D01*
X-14308Y125643D02*
X-12412Y125643D01*
X-14308Y125643D02*
X-14308Y134039D01*
X-12412Y134039D01*
X-12412Y125643D01*
X-12412Y130515D02*
X-14308Y130515D01*
X-31412Y125643D02*
X-33308Y125643D01*
X-33308Y134039D01*
X-31412Y134039D01*
X-31412Y125643D01*
X-31412Y130515D02*
X-33308Y130515D01*
D16*
X-25400Y12700D03*
X-25400Y38100D03*
X0Y12700D03*
X0Y38100D03*
X25400Y12700D03*
X25400Y38100D03*
M02*
